<?xml version="1.0" encoding="UTF-8"?>
<svg version="1.1" xmlns="http://www.w3.org/2000/svg" width="368" height="383">
<path d="M0 0 C121.44 0 242.88 0 368 0 C368 126.39 368 252.78 368 383 C246.56 383 125.12 383 0 383 C0 256.61 0 130.22 0 0 Z " fill="#F6A26F" transform="translate(0,0)"/>
<path d="M0 0 C6.28471205 2.23397182 6.28471205 2.23397182 12.90234375 2.25390625 C13.41796875 1.73828125 13.93359375 1.22265625 14.46484375 0.69140625 C14.93921875 0.21703125 15.41359375 -0.25734375 15.90234375 -0.74609375 C23.2636792 0.0273799 31.99482633 4.07667478 37.0078125 9.5546875 C38.56609125 12.06636044 39.77866249 14.52095291 40.90234375 17.25390625 C41.26328125 18.12144531 41.62421875 18.98898438 41.99609375 19.8828125 C44.68077072 26.86907416 46.76011436 34.08655366 48.90234375 41.25390625 C59.03694865 28.86103271 59.03694865 28.86103271 68.90234375 16.25390625 C70.88234375 16.74890625 70.88234375 16.74890625 72.90234375 17.25390625 C74.5247964 23.02983767 73.04579023 26.93771147 70.96484375 32.31640625 C70.64636475 33.15478027 70.32788574 33.9931543 69.99975586 34.85693359 C65.56583735 46.11915133 59.35542174 55.55353077 50.90234375 64.25390625 C46.79801957 62.38830435 43.99598064 60.50895028 40.90234375 57.25390625 C40.87475227 58.36572266 40.87475227 58.36572266 40.84660339 59.5 C40.6691051 66.55916027 40.47899972 73.61784981 40.27547741 80.67630005 C40.17132286 84.303268 40.07168507 87.93023158 39.9831543 91.55761719 C39.89719424 95.07231951 39.79834639 98.58646376 39.69133949 102.10058594 C39.63471645 104.06292261 39.59072066 106.02561106 39.54716492 107.98828125 C39.23987703 117.55909224 37.71520484 125.58531375 35.90234375 135.25390625 C20.39234375 135.25390625 4.88234375 135.25390625 -11.09765625 135.25390625 C-11.09765625 121.19499134 -9.86589369 108.74419627 -6.09765625 95.25390625 C-5.43765625 95.58390625 -4.77765625 95.91390625 -4.09765625 96.25390625 C-4.09765625 98.89390625 -4.09765625 101.53390625 -4.09765625 104.25390625 C-2.65643012 103.65868288 -1.21979757 103.05233006 0.21484375 102.44140625 C1.01535156 102.10496094 1.81585938 101.76851563 2.640625 101.421875 C4.8675012 100.27189921 6.25222142 99.11763664 7.90234375 97.25390625 C5.09430107 94.2898612 2.71918601 91.80891606 -1.09765625 90.25390625 C-2.58265625 91.24390625 -2.58265625 91.24390625 -4.09765625 92.25390625 C-10.89973239 91.7640448 -16.59094411 84.00940102 -20.83203125 79.234375 C-32.70886786 65.46705508 -32.70886786 65.46705508 -32.09765625 55.25390625 C-27.81742135 11.33618656 -27.81742135 11.33618656 -18.72265625 3.81640625 C-16.37109375 2.3828125 -16.37109375 2.3828125 -14.09765625 1.25390625 C-13.45054687 0.89167969 -12.8034375 0.52945313 -12.13671875 0.15625 C-7.43731815 -2.2139717 -4.74803938 -1.68878123 0 0 Z " fill="#943321" transform="translate(180.09765625,133.74609375)"/>
<path d="M0 0 C0.495 1.485 0.495 1.485 1 3 C2.00478142 2.99000725 2.00478142 2.99000725 3.02986145 2.97981262 C9.98869029 2.9135486 16.94742981 2.86823652 23.90649414 2.83520508 C26.50516397 2.82009937 29.10380823 2.79961366 31.70239258 2.77368164 C35.43316958 2.73737757 39.16361013 2.72029142 42.89453125 2.70703125 C44.06023148 2.69154739 45.2259317 2.67606354 46.42695618 2.66011047 C48.0482972 2.65977058 48.0482972 2.65977058 49.70239258 2.65942383 C50.65503494 2.65276199 51.60767731 2.64610016 52.58918762 2.63923645 C55 3 55 3 56.80683899 4.2467804 C58.30534715 6.44867423 58.38004058 7.73887689 58.38818359 10.39208984 C58.39764008 11.27665863 58.40709656 12.16122742 58.4168396 13.07260132 C58.41076691 14.02575226 58.40469421 14.9789032 58.3984375 15.9609375 C58.40130768 16.94365631 58.40417786 17.92637512 58.40713501 18.93887329 C58.40917711 21.01849951 58.40363706 23.09814487 58.39111328 25.17773438 C58.37509622 28.35590829 58.39093963 31.53280383 58.41015625 34.7109375 C58.40817317 36.73177364 58.40432816 38.75260898 58.3984375 40.7734375 C58.40451019 41.72253998 58.41058289 42.67164246 58.4168396 43.64950562 C58.40265488 44.98581528 58.40265488 44.98581528 58.38818359 46.34912109 C58.38579681 47.12838959 58.38341003 47.90765808 58.38095093 48.71054077 C57.82576191 52.04714538 57.3968398 53.51959317 55 56 C51.3009211 56.77530678 47.62566065 56.66108869 43.85913086 56.61523438 C42.71098404 56.62078339 41.56283722 56.6263324 40.37989807 56.63204956 C36.57445909 56.64388672 32.77019993 56.61952893 28.96484375 56.59375 C26.32833409 56.59204008 23.69182273 56.59210337 21.05531311 56.59387207 C15.52623077 56.59381849 9.99749003 56.57405277 4.46850586 56.54199219 C-1.92830243 56.50508027 -8.32466347 56.49631886 -14.72156435 56.5032897 C-20.87097319 56.50958916 -27.02020356 56.49864 -33.16958427 56.47932434 C-35.78875412 56.47227355 -38.40793757 56.46917231 -41.02711678 56.47001648 C-44.68117171 56.46822693 -48.33458142 56.44691715 -51.98852539 56.41992188 C-53.08000885 56.42285248 -54.17149231 56.42578308 -55.29605103 56.42880249 C-56.28733505 56.4174527 -57.27861908 56.40610291 -58.29994202 56.39440918 C-59.59659082 56.38881611 -59.59659082 56.38881611 -60.91943455 56.38311005 C-61.94931445 56.19347057 -61.94931445 56.19347057 -63 56 C-65.1360946 52.79585809 -65.25181542 51.96644303 -65.25878906 48.28491211 C-65.26509338 47.33059799 -65.27139771 46.37628387 -65.27789307 45.39305115 C-65.2738446 44.36486771 -65.26979614 43.33668427 -65.265625 42.27734375 C-65.26753845 41.22092178 -65.2694519 40.16449982 -65.27142334 39.07606506 C-65.27278464 36.84261843 -65.26909206 34.60916387 -65.26074219 32.37573242 C-65.25003148 28.94757423 -65.26064501 25.51993883 -65.2734375 22.09179688 C-65.2721161 19.924478 -65.26955413 17.75715946 -65.265625 15.58984375 C-65.26967346 14.55963608 -65.27372192 13.52942841 -65.27789307 12.46800232 C-65.27158875 11.51684036 -65.26528442 10.56567841 -65.25878906 9.58569336 C-65.25719788 8.74646835 -65.25560669 7.90724335 -65.25396729 7.04258728 C-65 5 -65 5 -63 3 C-60.34171568 2.74030869 -57.78138672 2.60197917 -55.1171875 2.55078125 C-54.31822556 2.52863556 -53.51926361 2.50648987 -52.6960907 2.4836731 C-50.0891959 2.41561059 -47.48228589 2.36321451 -44.875 2.3125 C-43.55542801 2.282061 -43.55542801 2.282061 -42.209198 2.25100708 C-28.09792395 1.92702334 -14.09082826 2.07763964 0 3 C0 2.01 0 1.02 0 0 Z " fill="#F26367" transform="translate(193,266)"/>
<path d="M0 0 C1.26328125 0.02707031 2.5265625 0.05414063 3.828125 0.08203125 C4.79234375 0.11683594 5.7565625 0.15164062 6.75 0.1875 C8.05492469 4.34694744 8.87019705 7.83786909 8.75 12.1875 C9.6678125 12.12949219 10.585625 12.07148437 11.53125 12.01171875 C18.30397533 11.7627215 23.49016195 11.63426176 29.19921875 15.5078125 C33.38657567 20.04323687 34.28064469 25.20734454 34.69921875 31.15625 C34.76156204 31.9136145 34.82390533 32.670979 34.88813782 33.45129395 C35.01732562 35.05104959 35.14052272 36.65129908 35.25805664 38.25195312 C35.43500578 40.65364643 35.6308243 43.0531904 35.83007812 45.453125 C36.5725953 54.72111878 36.92794609 63.88534479 36.75 73.1875 C35.76 73.6825 35.76 73.6825 34.75 74.1875 C34.6048999 73.61942627 34.4597998 73.05135254 34.31030273 72.46606445 C30.16466795 52.53092985 30.16466795 52.53092985 17.8515625 37.66015625 C12.98607848 35.05887925 7.98646013 32.93298671 2.75 31.1875 C2.42 32.1775 2.09 33.1675 1.75 34.1875 C-1.93735405 36.03117702 -6.29652876 34.88901821 -10.25 34.1875 C-12.25390625 33.4140625 -12.25390625 33.4140625 -14 32.5625 C-17.83845448 30.93853849 -19.26057224 31.20373776 -23.25 32.1875 C-28.38776529 34.58605078 -34.11300354 37.39502256 -36.25 42.9375 C-36.40065918 43.5778418 -36.55131836 44.21818359 -36.70654297 44.87792969 C-37.27539931 47.29544135 -37.97426609 49.65293245 -38.67578125 52.03515625 C-40.5553556 58.89874476 -41.50752408 65.82961825 -42.4375 72.875 C-42.61474609 74.14150391 -42.79199219 75.40800781 -42.97460938 76.71289062 C-45.06380679 90.66903122 -45.06380679 90.66903122 -39.5859375 103.171875 C-33.9847565 110.40283107 -27.74036221 117.85757042 -20.25 123.1875 C-17.95393132 122.97876648 -16.40314384 122.25666174 -14.3125 121.3125 C-12.25 121.1875 -12.25 121.1875 -9.5 123.5 C-7.25 126.1875 -7.25 126.1875 -7.25 128.1875 C-6.26 128.5175 -5.27 128.8475 -4.25 129.1875 C-7.36371882 132.56810901 -9.79087397 134.89670036 -14.25 136.1875 C-15.24 136.1875 -16.23 136.1875 -17.25 136.1875 C-17.58 133.5475 -17.91 130.9075 -18.25 128.1875 C-20.86015516 136.50723663 -22.04991426 144.64909973 -22.875 153.3125 C-23.11341372 155.73214565 -23.35539441 158.15144346 -23.6015625 160.5703125 C-23.70291504 161.62621582 -23.80426758 162.68211914 -23.90869141 163.77001953 C-24.25 166.1875 -24.25 166.1875 -25.25 167.1875 C-27.46855264 167.27533542 -29.68988496 167.29444609 -31.91015625 167.28515625 C-32.90685585 167.28303383 -32.90685585 167.28303383 -33.9236908 167.28086853 C-36.05333899 167.27525518 -38.18288339 167.26270054 -40.3125 167.25 C-41.75325369 167.24498671 -43.19400903 167.24042351 -44.63476562 167.23632812 C-48.17321102 167.22528145 -51.71159539 167.20800792 -55.25 167.1875 C-56.19274428 164.35926717 -56.5006963 162.17376284 -56.72729492 159.22216797 C-56.80816849 158.19403992 -56.88904205 157.16591187 -56.97236633 156.10662842 C-57.05754013 154.97573792 -57.14271393 153.84484741 -57.23046875 152.6796875 C-57.37061653 150.88425507 -57.37061653 150.88425507 -57.51359558 149.05255127 C-57.7710852 145.74833154 -58.02537857 142.44389471 -58.27825165 139.13932037 C-58.76947742 132.73305194 -59.26981064 126.32748524 -59.76953125 119.921875 C-59.82751389 119.17678303 -59.88549652 118.43169106 -59.94523621 117.66402054 C-60.83009226 106.30702089 -61.76554419 94.95495137 -62.73390388 83.60477829 C-62.94806813 81.09162713 -63.16106794 78.57838013 -63.37364197 76.06509399 C-63.44320256 75.24292074 -63.51276316 74.42074749 -63.58443165 73.5736599 C-63.72386592 71.92549074 -63.86326976 70.27731902 -64.00264263 68.62914467 C-64.41316655 63.78338102 -64.8312054 58.93833332 -65.25419712 54.09364319 C-65.51781357 51.05296013 -65.77418081 48.01169607 -66.0286808 44.97023773 C-66.14823509 43.5599588 -66.27083117 42.14993372 -66.39678001 40.74021149 C-68.04927552 22.20771248 -68.04927552 22.20771248 -64.5 16.25 C-60.03963856 12.16133534 -55.34797233 11.83397237 -49.5 11.7109375 C-48.76426758 11.69479401 -48.02853516 11.67865051 -47.27050781 11.66201782 C-45.7207973 11.63446476 -44.1709687 11.61296328 -42.62109375 11.59716797 C-41.04000154 11.57405068 -39.45907016 11.5330193 -37.87890625 11.47412109 C-24.6644559 10.98215216 -24.6644559 10.98215216 -21.19067383 13.94238281 C-19.89453125 16.1015625 -19.89453125 16.1015625 -19.06958008 18.26416016 C-18.29547859 20.60068773 -18.29547859 20.60068773 -14.9375 22.1875 C-14.050625 22.5175 -13.16375 22.8475 -12.25 23.1875 C-13.77206009 20.55848712 -15.09365964 18.34384036 -17.25 16.1875 C-16.875 14.0625 -16.875 14.0625 -16.25 12.1875 C-15.26 12.1875 -14.27 12.1875 -13.25 12.1875 C-12.755 14.1675 -12.755 14.1675 -12.25 16.1875 C-11.59 15.8575 -10.93 15.5275 -10.25 15.1875 C-10.36859375 14.35605469 -10.4871875 13.52460937 -10.609375 12.66796875 C-10.73828125 11.58128906 -10.8671875 10.49460937 -11 9.375 C-11.13921875 8.29605469 -11.2784375 7.21710938 -11.421875 6.10546875 C-11.25 3.1875 -11.25 3.1875 -9.71875 1.3125 C-6.36293441 -0.21673242 -3.67174326 -0.10199287 0 0 Z " fill="#CDEBF7" transform="translate(193.25,101.8125)"/>
<path d="M0 0 C6.13620341 4.83062822 11.46981314 10.43194715 12.9375 18.3125 C13.62532589 25.94639856 13.50920354 33.37831406 9.9375 40.3125 C7.75 42.875 7.75 42.875 5.9375 44.3125 C5.87433594 43.73242188 5.81117188 43.15234375 5.74609375 42.5546875 C5.07530562 37.6813928 5.07530562 37.6813928 2.31640625 33.80078125 C1.69636719 33.37152344 1.07632813 32.94226563 0.4375 32.5 C-2.18206827 30.57178171 -2.96214398 29.68458925 -3.82421875 26.48828125 C-4.10696811 24.3793342 -4.37661323 22.26858681 -4.6328125 20.15625 C-5.2247965 16.23839226 -6.29452247 14.15145131 -9.0625 11.3125 C-14.20078141 8.03142874 -19.06764367 6.86806477 -25.1171875 6.87890625 C-27.70542822 7.45580328 -28.57970296 8.10695598 -30.0625 10.3125 C-30.0625 12.2925 -30.0625 14.2725 -30.0625 16.3125 C-23.6275 15.8175 -23.6275 15.8175 -17.0625 15.3125 C-16.0725 16.9625 -15.0825 18.6125 -14.0625 20.3125 C-13.0725 19.9825 -12.0825 19.6525 -11.0625 19.3125 C-11.3925 22.9425 -11.7225 26.5725 -12.0625 30.3125 C-10.0825 30.9725 -8.1025 31.6325 -6.0625 32.3125 C-6.0625 37.9225 -6.0625 43.5325 -6.0625 49.3125 C-5.4025 49.3125 -4.7425 49.3125 -4.0625 49.3125 C-4.0625 50.6325 -4.0625 51.9525 -4.0625 53.3125 C-11.61235195 56.05790071 -19.96664424 56.60017416 -27.6875 54.125 C-31.0625 52.3125 -31.0625 52.3125 -32.5625 50.0625 C-33.38030275 45.56458487 -33.5145565 41.6686695 -32.0625 37.3125 C-34.02551592 40.81788557 -35.02152388 44.44601728 -36.0625 48.3125 C-42.51793386 43.82955982 -45.54708226 37.88958872 -47.0625 30.3125 C-48.07603409 21.78529983 -46.47287724 14.70091234 -42.0625 7.3125 C-30.9602625 -6.08449131 -14.82183195 -8.16713189 0 0 Z " fill="#FDD1D0" transform="translate(295.0625,49.6875)"/>
<path d="M0 0 C7.35561048 5.15173482 14.94784149 12.73205427 16.859375 21.74609375 C18.03441477 33.04846461 17.88782811 43.32352036 10.859375 52.74609375 C9.374375 53.73609375 9.374375 53.73609375 7.859375 54.74609375 C5.88887097 52.77558972 6.6092287 48.86607573 6.53125 46.19140625 C6.06760935 43.57346667 6.06760935 43.57346667 3.73828125 42.03125 C0.52775272 40.59805612 -2.51501622 39.78788955 -5.953125 39.05859375 C-7.69529297 38.68154297 -7.69529297 38.68154297 -9.47265625 38.296875 C-10.35308594 38.11511719 -11.23351562 37.93335938 -12.140625 37.74609375 C-12.470625 36.09609375 -12.800625 34.44609375 -13.140625 32.74609375 C-11.7484375 32.15828125 -11.7484375 32.15828125 -10.328125 31.55859375 C-6.79693463 29.55066197 -5.66418135 28.4703426 -4.140625 24.74609375 C-3.47395833 21.24609375 -3.47395833 21.24609375 -4.140625 17.74609375 C-6.53646151 14.93277997 -6.53646151 14.93277997 -9.140625 12.74609375 C-9.140625 12.08609375 -9.140625 11.42609375 -9.140625 10.74609375 C-14.69560165 9.15895756 -19.3583094 8.35407235 -25.140625 8.74609375 C-26.130625 9.40609375 -27.120625 10.06609375 -28.140625 10.74609375 C-28.01494141 11.79410156 -28.01494141 11.79410156 -27.88671875 12.86328125 C-27.78488281 13.77335937 -27.68304688 14.6834375 -27.578125 15.62109375 C-27.47371094 16.52601562 -27.36929688 17.4309375 -27.26171875 18.36328125 C-27.140625 20.74609375 -27.140625 20.74609375 -28.140625 22.74609375 C-28.21058514 24.4531211 -28.22502654 26.16277378 -28.203125 27.87109375 C-28.19410156 28.78117187 -28.18507812 29.69125 -28.17578125 30.62890625 C-28.16417969 31.32757813 -28.15257812 32.02625 -28.140625 32.74609375 C-26.490625 33.40609375 -24.840625 34.06609375 -23.140625 34.74609375 C-23.140625 35.73609375 -23.140625 36.72609375 -23.140625 37.74609375 C-24.09324219 37.91882812 -25.04585937 38.0915625 -26.02734375 38.26953125 C-33.37477566 39.71066695 -33.37477566 39.71066695 -39.1484375 44.1328125 C-40.37540535 46.64919866 -41.33975542 49.06608883 -42.140625 51.74609375 C-42.470625 52.73609375 -42.800625 53.72609375 -43.140625 54.74609375 C-46.20685447 53.82005129 -47.80135124 53.22244782 -49.6875 50.57421875 C-50.08453125 49.7234375 -50.4815625 48.87265625 -50.890625 47.99609375 C-51.29796875 47.155625 -51.7053125 46.31515625 -52.125 45.44921875 C-55.86220623 35.50250062 -55.08008479 24.43059906 -51.140625 14.74609375 C-50.480625 14.74609375 -49.820625 14.74609375 -49.140625 14.74609375 C-48.975625 13.92109375 -48.810625 13.09609375 -48.640625 12.24609375 C-45.6527912 5.27448156 -40.35142575 0.97278088 -33.578125 -2.25390625 C-22.88886295 -6.25393351 -9.95843455 -5.83331659 0 0 Z " fill="#CFEAF4" transform="translate(207.140625,7.25390625)"/>
<path d="M0 0 C2.78497733 0.82412594 5.32161742 1.85212175 8 3 C8 3.66 8 4.32 8 5 C8.61875 5.268125 9.2375 5.53625 9.875 5.8125 C12 7 12 7 14 10 C14.59292965 14.40462027 14.21679616 17.20050965 11.8125 20.875 C9.90701368 23.30857824 9.21164939 23.9294502 6.1875 24.9375 C5.465625 24.958125 4.74375 24.97875 4 25 C4.33 26.32 4.66 27.64 5 29 C6.12019531 29.25394531 7.24039063 29.50789063 8.39453125 29.76953125 C9.86732093 30.11662181 11.33997001 30.46430933 12.8125 30.8125 C13.55048828 30.97814453 14.28847656 31.14378906 15.04882812 31.31445312 C17.90969957 32.00054447 20.49148506 32.68217816 23 34.25 C24.5176682 36.90591935 24.28503747 39.1638383 24.1875 42.1875 C24.14689453 43.81751953 24.14689453 43.81751953 24.10546875 45.48046875 C24.07066406 46.31191406 24.03585938 47.14335938 24 48 C24.99 48.495 24.99 48.495 26 49 C23.64209605 52.06527514 22.2895895 53.72042487 18.44140625 54.5546875 C15.9559709 54.78736655 13.49540286 54.94670013 11 55 C10.67 55.99 10.34 56.98 10 58 C3.80863492 61.09568254 -7.28512202 59.28945121 -14 58 C-16.28125 56.9609375 -16.28125 56.9609375 -18 56 C-18 55.34 -18 54.68 -18 54 C-18.969375 53.731875 -19.93875 53.46375 -20.9375 53.1875 C-21.948125 52.795625 -22.95875 52.40375 -24 52 C-25.68968741 46.93093778 -25.54626879 42.64342501 -23.4375 37.75 C-21.74005058 34.6707672 -20.92442554 33.954946 -17.75 32.0625 C-13.75933668 30.93181206 -10.12471904 30.36181746 -6 30 C-6 29.01 -6 28.02 -6 27 C-6.804375 26.855625 -7.60875 26.71125 -8.4375 26.5625 C-11 26 -11 26 -12 25 C-12.30299071 20.34820152 -12.11732389 15.79519529 -11.4375 11.1875 C-11.01279645 8.09323127 -11.18507215 5.98806879 -12 3 C-8.44724409 -0.55275591 -4.75717147 -0.66737298 0 0 Z " fill="#FD8876" transform="translate(190,15)"/>
<path d="M0 0 C7.66107343 5.74262884 13.17559961 12.03428734 15.54296875 21.453125 C16.62061183 30.9450923 15.78165109 39.47334085 10.1640625 47.3984375 C9.01818365 48.80222071 7.78921929 50.13763832 6.54296875 51.453125 C5.55296875 51.123125 4.56296875 50.793125 3.54296875 50.453125 C2.36055225 48.088292 2.40716288 46.46274662 2.29296875 43.828125 C1.85875311 39.20964954 0.71966745 36.54059534 -1.9296875 32.80078125 C-4.64275853 28.6305621 -6.60465243 24.02691347 -8.7109375 19.52734375 C-10.69705827 16.0305271 -12.48289007 14.22868046 -16.20703125 12.765625 C-23.15015296 11.78037722 -23.15015296 11.78037722 -29.39453125 14.265625 C-32.61936806 17.68590647 -32.52143929 20.51983756 -32.64453125 25.015625 C-33.05593611 30.91006364 -34.89090696 34.18377521 -38.15625 38.984375 C-40.29663711 43.0466112 -39.96996459 46.98870521 -39.45703125 51.453125 C-42.9030204 50.30446195 -43.22275435 49.69963067 -45.01953125 46.703125 C-45.43332031 46.02765625 -45.84710938 45.3521875 -46.2734375 44.65625 C-50.79934657 36.2317856 -51.23121718 25.44283535 -48.51171875 16.26171875 C-47.32439724 13.81613514 -46.03554395 11.66304278 -44.45703125 9.453125 C-43.73515625 8.380625 -43.01328125 7.308125 -42.26953125 6.203125 C-30.94566388 -4.86910087 -13.92864662 -8.76906846 0 0 Z " fill="#E6EFDC" transform="translate(111.45703125,44.546875)"/>
<path d="M0 0 C0.66 0.33 1.32 0.66 2 1 C2 3.64 2 6.28 2 9 C3.43903046 8.37853192 4.87616793 7.75267941 6.3125 7.125 C7.11300781 6.77695313 7.91351563 6.42890625 8.73828125 6.0703125 C11.1961834 4.97428106 11.1961834 4.97428106 14 3 C17.1862793 2.77294922 17.1862793 2.77294922 21.07421875 2.8046875 C22.09996758 2.80893234 22.09996758 2.80893234 23.1464386 2.81326294 C25.32697165 2.82444316 27.50709145 2.84954309 29.6875 2.875 C31.16731177 2.88503262 32.64712999 2.89415798 34.12695312 2.90234375 C37.751436 2.92437519 41.37567766 2.95888998 45 3 C45.09006161 6.16647378 45.1413729 9.33260601 45.1875 12.5 C45.21263672 13.36753906 45.23777344 14.23507813 45.26367188 15.12890625 C45.3596222 24.02030293 43.72918995 30.77765362 42 40 C26.49 40 10.98 40 -5 40 C-5 25.94108509 -3.76823744 13.49029002 0 0 Z " fill="#06508F" transform="translate(174,229)"/>
<path d="M0 0 C7.77177274 4.74941667 11.11269306 14.26286133 14.95703125 22.21875 C16.10568608 24.89894297 16.10568608 24.89894297 17.375 26.0625 C17.65984531 28.54472341 17.82306553 31.02718855 17.99609375 33.51953125 C18.37879712 36.08798378 19.0875828 37.8264596 20.375 40.0625 C13.83299988 46.26018433 7.00931962 49.25005016 -2.0625 49.5625 C-8.49304009 49.34258766 -13.86718049 47.90377695 -19.625 45.0625 C-20.29015625 44.73507813 -20.9553125 44.40765625 -21.640625 44.0703125 C-24.25844109 42.39442089 -25.48701086 40.65061925 -26.19140625 37.6484375 C-26.63839192 30.89610083 -24.74741829 27.13787114 -21.015625 21.6796875 C-18.95184917 17.79561502 -18.94315117 14.1609085 -18.92578125 9.82421875 C-18.48481581 5.77535426 -16.67135055 3.186358 -13.9375 0.25 C-9.27952739 -2.14193188 -4.84925345 -1.25411727 0 0 Z " fill="#D3C6DD" transform="translate(96.625,56.9375)"/>
<path d="M0 0 C1.26328125 0.02707031 2.5265625 0.05414063 3.828125 0.08203125 C4.79234375 0.11683594 5.7565625 0.15164062 6.75 0.1875 C8.05492469 4.34694744 8.87019705 7.83786909 8.75 12.1875 C9.6678125 12.12949219 10.585625 12.07148437 11.53125 12.01171875 C18.30397533 11.7627215 23.49016195 11.63426176 29.19921875 15.5078125 C33.38657567 20.04323687 34.28064469 25.20734454 34.69921875 31.15625 C34.76156204 31.9136145 34.82390533 32.670979 34.88813782 33.45129395 C35.01732562 35.05104959 35.14052272 36.65129908 35.25805664 38.25195312 C35.43500578 40.65364643 35.6308243 43.0531904 35.83007812 45.453125 C36.5725953 54.72111878 36.92794609 63.88534479 36.75 73.1875 C35.76 73.6825 35.76 73.6825 34.75 74.1875 C34.6048999 73.61942627 34.4597998 73.05135254 34.31030273 72.46606445 C30.16466795 52.53092985 30.16466795 52.53092985 17.8515625 37.66015625 C12.98607848 35.05887925 7.98646013 32.93298671 2.75 31.1875 C2.42 32.1775 2.09 33.1675 1.75 34.1875 C-1.94260879 36.03380439 -6.29036785 34.87792766 -10.25 34.1875 C-12.73298687 33.35983771 -14.90074975 32.36212512 -17.25 31.1875 C-17.25 30.8575 -17.25 30.5275 -17.25 30.1875 C-15.6 30.1875 -13.95 30.1875 -12.25 30.1875 C-12.27793281 23.45248122 -12.27793281 23.45248122 -15.375 17.8125 C-15.99375 17.27625 -16.6125 16.74 -17.25 16.1875 C-17 13.9375 -17 13.9375 -16.25 12.1875 C-15.26 12.1875 -14.27 12.1875 -13.25 12.1875 C-12.92 13.5075 -12.59 14.8275 -12.25 16.1875 C-11.59 15.8575 -10.93 15.5275 -10.25 15.1875 C-10.42789063 13.94033203 -10.42789063 13.94033203 -10.609375 12.66796875 C-10.73828125 11.58128906 -10.8671875 10.49460937 -11 9.375 C-11.13921875 8.29605469 -11.2784375 7.21710938 -11.421875 6.10546875 C-11.25 3.1875 -11.25 3.1875 -9.71875 1.3125 C-6.36293441 -0.21673242 -3.67174326 -0.10199287 0 0 Z " fill="#FCFDFC" transform="translate(193.25,101.8125)"/>
<path d="M0 0 C0.74759079 0.0028299 1.49518158 0.00565979 2.26542664 0.00857544 C4.63935755 0.01971781 7.012903 0.04481088 9.38671875 0.0703125 C11.00194765 0.08035001 12.61718251 0.08947451 14.23242188 0.09765625 C18.17983469 0.11963761 22.12696149 0.15412593 26.07421875 0.1953125 C27.39421875 2.8353125 28.71421875 5.4753125 30.07421875 8.1953125 C28.35537476 8.23289673 28.35537476 8.23289673 26.60180664 8.27124023 C22.36568277 8.36514356 18.12972947 8.46540525 13.89379883 8.56762695 C12.05757628 8.6110407 10.22131167 8.65271089 8.38500977 8.69262695 C5.75133564 8.75017419 3.11787454 8.81391248 0.484375 8.87890625 C-0.34166733 8.89561874 -1.16770966 8.91233124 -2.01878357 8.92955017 C-5.78054878 8.67338683 -5.78054878 8.67338683 -8.92578125 10.1953125 C-9.7266661 21.61210538 -8.31797256 33.17059825 -7.33078003 44.53445435 C-6.85478065 50.01417994 -6.39688425 55.49542318 -5.9375 60.9765625 C-5.84716995 62.04894669 -5.7568399 63.12133087 -5.66377258 64.22621155 C-4.9797436 72.39892012 -4.3883406 80.5732368 -3.86328125 88.7578125 C-3.1715568 99.46273694 -2.20573337 110.12994527 -1.16339111 120.80496216 C-0.08023924 131.93769349 0.63764631 143.01905792 1.07421875 154.1953125 C8.66421875 154.1953125 16.25421875 154.1953125 24.07421875 154.1953125 C24.07421875 154.5253125 24.07421875 154.8553125 24.07421875 155.1953125 C14.17421875 155.1953125 4.27421875 155.1953125 -5.92578125 155.1953125 C-6.86852553 152.36707967 -7.17647755 150.18157534 -7.40307617 147.22998047 C-7.48394974 146.20185242 -7.5648233 145.17372437 -7.64814758 144.11444092 C-7.73332138 142.98355042 -7.81849518 141.85265991 -7.90625 140.6875 C-8.04639778 138.89206757 -8.04639778 138.89206757 -8.18937683 137.06036377 C-8.44686645 133.75614404 -8.70115982 130.45170721 -8.9540329 127.14713287 C-9.44525867 120.74086444 -9.94559189 114.33529774 -10.4453125 107.9296875 C-10.50329514 107.18459553 -10.56127777 106.43950356 -10.62101746 105.67183304 C-11.50587351 94.31483339 -12.44132544 82.96276387 -13.40968513 71.61259079 C-13.62384938 69.09943963 -13.83684919 66.58619263 -14.04942322 64.07290649 C-14.11898381 63.25073324 -14.18854441 62.42855999 -14.2602129 61.5814724 C-14.39964717 59.93330324 -14.53905101 58.28513152 -14.67842388 56.63695717 C-15.0889478 51.79119352 -15.50698665 46.94614582 -15.92997837 42.10145569 C-16.19359482 39.06077263 -16.44996206 36.01950857 -16.70446205 32.97805023 C-16.82401634 31.5677713 -16.94661242 30.15774622 -17.07256126 28.74802399 C-18.72505677 10.21552498 -18.72505677 10.21552498 -15.17578125 4.2578125 C-10.59838844 0.06186909 -5.98055276 -0.08599318 0 0 Z " fill="#FCFAF7" transform="translate(143.92578125,113.8046875)"/>
<path d="M0 0 C0.51949219 0.42152344 1.03898438 0.84304687 1.57421875 1.27734375 C6.70146308 5.43428979 6.70146308 5.43428979 13 7 C13.12060791 8.49273437 13.12060791 8.49273437 13.24365234 10.015625 C13.48405978 12.99041609 13.72475381 15.96518388 13.96557617 18.93994141 C14.23982263 22.32758489 14.51331319 25.71528834 14.78637695 29.10302734 C15.38706459 36.54174905 15.99113642 43.9797424 16.64453125 51.4140625 C16.73750488 52.48140625 16.83047852 53.54875 16.92626953 54.6484375 C17.0938264 56.55764628 17.26504948 58.46653891 17.44091797 60.375 C17.98919466 66.65718971 18 72.63160994 18 79 C10.74 79 3.48 79 -4 79 C-3.68305176 76.67646484 -3.36610352 74.35292969 -3.03955078 71.95898438 C-1.99629602 63.8641629 -1.57772262 55.81605575 -1.3671875 47.65625 C-1.32586706 46.26662242 -1.28387079 44.8770148 -1.24124146 43.48742676 C-1.13266537 39.89077285 -1.03305355 36.29392918 -0.93554688 32.69696045 C-0.83372255 29.00223605 -0.72309071 25.30777542 -0.61328125 21.61328125 C-0.40041285 14.40907967 -0.19704887 7.20465353 0 0 Z " fill="#CDE9F6" transform="translate(220,190)"/>
<path d="M0 0 C4.59803385 0.417229 8.94429949 2.35472355 13.25 3.9375 C22.53096365 7.26991004 31.15150698 9.21869993 41 10 C40.60167969 10.45890625 40.20335937 10.9178125 39.79296875 11.390625 C38.18554015 13.2522698 36.59200008 15.12515727 35 17 C34.0409375 18.11375 34.0409375 18.11375 33.0625 19.25 C32.5365625 20.11625 32.5365625 20.11625 32 21 C32.75150023 24.27773504 32.75150023 24.27773504 36 26 C36.1875 28.625 36.1875 28.625 36 31 C34.375 31.6875 34.375 31.6875 32 32 C28.75 30.5625 28.75 30.5625 26 29 C25.896875 29.639375 25.79375 30.27875 25.6875 30.9375 C24.76096927 35.06477326 23.38339371 39.00642949 22 43 C17.96189555 41.65396518 16.52704924 39.34663277 14 36 C14 35.34 14 34.68 14 34 C12.515 33.505 12.515 33.505 11 33 C10.67 30.69 10.34 28.38 10 26 C9.401875 25.896875 8.80375 25.79375 8.1875 25.6875 C5.68741714 24.90175967 4.62464918 24.03081147 3 22 C3 21.34 3 20.68 3 20 C2.443125 19.7525 1.88625 19.505 1.3125 19.25 C-1.51574155 17.72122078 -3.71707696 16.28292304 -6 14 C-6.7900372 9.96203206 -6.18740735 8.3248394 -4.125 4.75 C-2 2 -2 2 0 0 Z " fill="#C0DCB0" transform="translate(261,118)"/>
<path d="M0 0 C1.26328125 0.02707031 2.5265625 0.05414063 3.828125 0.08203125 C4.79234375 0.11683594 5.7565625 0.15164062 6.75 0.1875 C8.10148541 4.49535975 8.75 7.60707592 8.75 12.1875 C13.37 12.1875 17.99 12.1875 22.75 12.1875 C22.75 12.5175 22.75 12.8475 22.75 13.1875 C18.13 13.1875 13.51 13.1875 8.75 13.1875 C8.75 15.4975 8.75 17.8075 8.75 20.1875 C7.57236619 24.68391999 5.12991014 27.07442487 1.75 30.1875 C2.884375 30.31125 4.01875 30.435 5.1875 30.5625 C6.9509375 30.871875 6.9509375 30.871875 8.75 31.1875 C9.08 31.8475 9.41 32.5075 9.75 33.1875 C7.44 32.5275 5.13 31.8675 2.75 31.1875 C2.42 32.1775 2.09 33.1675 1.75 34.1875 C-1.94260879 36.03380439 -6.29036785 34.87792766 -10.25 34.1875 C-12.73298687 33.35983771 -14.90074975 32.36212512 -17.25 31.1875 C-17.25 30.8575 -17.25 30.5275 -17.25 30.1875 C-15.6 30.1875 -13.95 30.1875 -12.25 30.1875 C-12.27793281 23.45248122 -12.27793281 23.45248122 -15.375 17.8125 C-15.99375 17.27625 -16.6125 16.74 -17.25 16.1875 C-17 13.9375 -17 13.9375 -16.25 12.1875 C-15.26 12.1875 -14.27 12.1875 -13.25 12.1875 C-12.92 13.5075 -12.59 14.8275 -12.25 16.1875 C-11.59 15.8575 -10.93 15.5275 -10.25 15.1875 C-10.42789063 13.94033203 -10.42789063 13.94033203 -10.609375 12.66796875 C-10.73828125 11.58128906 -10.8671875 10.49460937 -11 9.375 C-11.13921875 8.29605469 -11.2784375 7.21710938 -11.421875 6.10546875 C-11.25 3.1875 -11.25 3.1875 -9.71875 1.3125 C-6.36293441 -0.21673242 -3.67174326 -0.10199287 0 0 Z " fill="#FCCFCF" transform="translate(193.25,101.8125)"/>
<path d="M0 0 C7.77177274 4.74941667 11.11269306 14.26286133 14.95703125 22.21875 C16.10568608 24.89894297 16.10568608 24.89894297 17.375 26.0625 C17.51615161 28.73308851 17.41747107 31.38682238 17.375 34.0625 C16.694375 33.753125 16.01375 33.44375 15.3125 33.125 C12.34096977 31.91841549 12.34096977 31.91841549 8.875 31.6875 C4.78775308 30.95763448 3.06055988 30.2363435 0.375 27.0625 C-0.3165131 24.05381142 -0.07813004 22.23441028 0.375 19.0625 C2.375 17.25 2.375 17.25 4.375 16.0625 C4.375 15.0725 4.375 14.0825 4.375 13.0625 C3.385 13.0625 2.395 13.0625 1.375 13.0625 C0.715 11.7425 0.055 10.4225 -0.625 9.0625 C-1.615 9.3925 -2.605 9.7225 -3.625 10.0625 C-5.35295352 10.13052967 -7.08335365 10.14745645 -8.8125 10.125 C-9.71355469 10.11597656 -10.61460938 10.10695313 -11.54296875 10.09765625 C-12.23003906 10.08605469 -12.91710937 10.07445313 -13.625 10.0625 C-13.65685085 17.31138449 -13.65685085 17.31138449 -10.5625 23.5 C-9.6034375 24.2734375 -9.6034375 24.2734375 -8.625 25.0625 C-8.625 26.3825 -8.625 27.7025 -8.625 29.0625 C-11.15625276 30.48000155 -13.34990774 31.2532652 -16.1875 32 C-19.36636983 32.98255977 -20.6451464 33.50033652 -22.625 36.0625 C-23.615 35.7325 -24.605 35.4025 -25.625 35.0625 C-26.3537109 30.44733095 -25.19649007 28.15008674 -22.6875 24.4375 C-19.50300891 19.51939577 -18.94900271 15.62184286 -18.92578125 9.82421875 C-18.48481581 5.77535426 -16.67135055 3.186358 -13.9375 0.25 C-9.27952739 -2.14193188 -4.84925345 -1.25411727 0 0 Z " fill="#572012" transform="translate(96.625,56.9375)"/>
<path d="M0 0 C2.78497733 0.82412594 5.32161742 1.85212175 8 3 C8 3.66 8 4.32 8 5 C8.61875 5.268125 9.2375 5.53625 9.875 5.8125 C12 7 12 7 14 10 C14.59292965 14.40462027 14.21679616 17.20050965 11.8125 20.875 C9.90701368 23.30857824 9.21164939 23.9294502 6.1875 24.9375 C5.465625 24.958125 4.74375 24.97875 4 25 C4.33 26.32 4.66 27.64 5 29 C7.97 29.66 10.94 30.32 14 31 C14 31.33 14 31.66 14 32 C10.8339704 32.19945986 7.66718204 32.38234428 4.5 32.5625 C3.1696875 32.64661133 3.1696875 32.64661133 1.8125 32.73242188 C-3.62265235 33.03215454 -8.62094863 32.8483317 -14 32 C-14 31.67 -14 31.34 -14 31 C-10.04 30.505 -10.04 30.505 -6 30 C-6 29.01 -6 28.02 -6 27 C-6.804375 26.855625 -7.60875 26.71125 -8.4375 26.5625 C-11 26 -11 26 -12 25 C-12.30299071 20.34820152 -12.11732389 15.79519529 -11.4375 11.1875 C-11.01279645 8.09323127 -11.18507215 5.98806879 -12 3 C-8.44724409 -0.55275591 -4.75717147 -0.66737298 0 0 Z " fill="#F6AA81" transform="translate(190,15)"/>
<path d="M0 0 C1.32 0.33 2.64 0.66 4 1 C5.62251818 6.77616471 4.14319144 10.68351933 2.0625 16.0625 C1.74619629 16.89652344 1.42989258 17.73054688 1.10400391 18.58984375 C-6.52146194 37.97978134 -6.52146194 37.97978134 -15 42 C-17.8125 42.6875 -17.8125 42.6875 -20 43 C-23.79054819 35.62731865 -26.70304844 28.34312341 -28.9375 20.375 C-29.27237427 19.20251709 -29.27237427 19.20251709 -29.61401367 18.00634766 C-31.12737556 12.38212668 -31.12737556 12.38212668 -30 9 C-28.68 9 -27.36 9 -26 9 C-24.68 14.28 -23.36 19.56 -22 25 C-17.78144594 22.89072297 -15.93509632 20.67558684 -13.25 17 C-12.37326288 15.82877754 -11.49564652 14.65821278 -10.6171875 13.48828125 C-10.18116211 12.90385254 -9.74513672 12.31942383 -9.29589844 11.71728516 C-6.29258529 7.73738601 -3.13355095 3.87755048 0 0 Z " fill="#96331E" transform="translate(249,150)"/>
<path d="M0 0 C5.30159123 2.70081063 7.41692862 5.83385723 10 11 C10.73175455 16.12228183 9.23039151 19.11611101 6.4140625 23.23046875 C4.45847948 25.67764861 2.95222148 26.90149898 0 28 C-5.58799317 28.53218983 -9.23310522 28.25015553 -14 25 C-17.26331306 21.47905697 -18.28814732 18.69606784 -18.5 14 C-18.28814732 9.30393216 -17.26331306 6.52094303 -14 3 C-9.52451893 -0.05146436 -5.29132736 -0.95053785 0 0 Z " fill="#FB868A" transform="translate(152,279)"/>
<path d="M0 0 C2.64 0.33 5.28 0.66 8 1 C8.08040527 1.99515625 8.16081055 2.9903125 8.24365234 4.015625 C8.5515294 7.8252534 8.85990342 11.63484148 9.16830444 15.44442749 C9.37471937 17.99653029 9.58056859 20.5486783 9.78637695 23.10083008 C10.38828635 30.55187838 10.99358399 38.0022575 11.64453125 45.44921875 C11.73750488 46.52107422 11.83047852 47.59292969 11.92626953 48.69726562 C12.0941948 50.61946068 12.26546578 52.54136798 12.44091797 54.46289062 C12.95043341 60.32286608 13.09205252 66.11886709 13 72 C10.66705225 72.04241723 8.33297433 72.04092937 6 72 C3.85917262 69.85917262 4.50100882 65.17226199 4.31640625 62.19921875 C4.25597641 61.29363724 4.19554657 60.38805573 4.13328552 59.45503235 C3.93864872 56.53279064 3.75002886 53.61020586 3.5625 50.6875 C3.31789138 46.89945929 3.06965471 43.11169198 2.81640625 39.32421875 C2.75377594 38.38464325 2.69114563 37.44506775 2.62661743 36.47702026 C2.12283818 29.18673884 1.44326953 21.92272985 0.63172913 14.6603241 C0.09912666 9.74028283 -0.08132609 4.9496256 0 0 Z " fill="#FCFCFA" transform="translate(225,196)"/>
<path d="M0 0 C1.60488281 0.01450195 1.60488281 0.01450195 3.2421875 0.02929688 C4.35335937 0.05443359 5.46453125 0.07957031 6.609375 0.10546875 C8.29933594 0.12577148 8.29933594 0.12577148 10.0234375 0.14648438 C12.80256764 0.1818123 15.58072863 0.23114355 18.359375 0.29296875 C18.71708343 6.61248435 18.71708343 6.61248435 17.359375 9.1953125 C14.1974212 10.93068168 10.88332188 10.78962988 7.359375 10.85546875 C1.56463804 10.89247413 1.56463804 10.89247413 -3.640625 13.29296875 C-3.310625 17.25296875 -2.980625 21.21296875 -2.640625 25.29296875 C-3.630625 25.62296875 -4.620625 25.95296875 -5.640625 26.29296875 C-6.630625 24.97296875 -7.620625 23.65296875 -8.640625 22.29296875 C-9.50421123 24.07438622 -9.50421123 24.07438622 -9.640625 26.29296875 C-8.34958857 27.66729785 -7.0149541 29.00193232 -5.640625 30.29296875 C-5.640625 31.28296875 -5.640625 32.27296875 -5.640625 33.29296875 C-10.80666515 32.21170453 -12.81362755 30.32680966 -15.66015625 26.14453125 C-17.84535744 22.01789633 -18.1177379 17.90506014 -17.640625 13.29296875 C-16.20559142 10.84591523 -14.70653321 9.30968867 -12.640625 7.29296875 C-11.980625 7.29296875 -11.320625 7.29296875 -10.640625 7.29296875 C-10.558125 6.69484375 -10.475625 6.09671875 -10.390625 5.48046875 C-8.67380104 0.47306553 -4.81973463 -0.07691066 0 0 Z " fill="#C9644E" transform="translate(186.640625,91.70703125)"/>
<path d="M0 0 C0.33 2.64 0.66 5.28 1 8 C4.53599998 7.92928 7.1041863 7.80836985 9.80078125 5.375 C11.27675028 3.62779084 12.67266996 1.86215167 14 0 C15.32 0.33 16.64 0.66 18 1 C18 6.28 18 11.56 18 17 C18.66 17 19.32 17 20 17 C20 18.32 20 19.64 20 21 C12.45014805 23.74540071 4.09585576 24.28767416 -3.625 21.8125 C-7 20 -7 20 -8.5 17.75 C-9.9591528 9.72465961 -9.9591528 9.72465961 -7.76171875 5.7734375 C-3.65094965 0 -3.65094965 0 0 0 Z " fill="#E2E1E0" transform="translate(271,82)"/>
<path d="M0 0 C0.33 0.99 0.66 1.98 1 3 C1.99 3.33 2.98 3.66 4 4 C3.6875 5.875 3.6875 5.875 3 8 C2.01 8.66 1.02 9.32 0 10 C-0.57748803 11.96361864 -0.57748803 11.96361864 -0.6875 14.125 C-0.8421875 16.043125 -0.8421875 16.043125 -1 18 C-0.360625 18.2475 0.27875 18.495 0.9375 18.75 C3 20 3 20 3.875 21.875 C4.02787435 24.47386397 3.33454536 25.8019253 2 28 C1.01 27.01 0.02 26.02 -1 25 C-1.37511719 25.49371094 -1.75023438 25.98742187 -2.13671875 26.49609375 C-6.36878216 31.7941681 -6.36878216 31.7941681 -9.875 32.9375 C-10.57625 32.958125 -11.2775 32.97875 -12 33 C-12 30.69 -12 28.38 -12 26 C-12.66 26 -13.32 26 -14 26 C-14 24.35 -14 22.7 -14 21 C-12.68 20.67 -11.36 20.34 -10 20 C-10 18.68 -10 17.36 -10 16 C-10.639375 15.71125 -11.27875 15.4225 -11.9375 15.125 C-14 14 -14 14 -15 12 C-15.07033769 10.12620395 -15.0843022 8.24998898 -15.0625 6.375 C-15.05347656 5.37210937 -15.04445313 4.36921875 -15.03515625 3.3359375 C-15.02355469 2.56507812 -15.01195313 1.79421875 -15 1 C-12.87630763 0.63807496 -10.7509887 0.28568253 -8.625 -0.0625 C-6.84996094 -0.35833984 -6.84996094 -0.35833984 -5.0390625 -0.66015625 C-2 -1 -2 -1 0 0 Z " fill="#F7A87D" transform="translate(98,66)"/>
<path d="M0 0 C7.80949852 7.80949852 9.08655934 25.45405254 9.1875 35.75 C9.16171825 40.59696811 8.76706835 45.21349349 8 50 C7.34 50 6.68 50 6 50 C5.52949219 49.10796875 5.05898437 48.2159375 4.57421875 47.296875 C3.94548973 46.11448908 3.31657357 44.93220265 2.6875 43.75 C1.76517578 42.00976562 1.76517578 42.00976562 0.82421875 40.234375 C-0.86304985 37.07683007 -0.86304985 37.07683007 -2.73046875 34.703125 C-4 33 -4 33 -4 31 C-4.99 30.67 -5.98 30.34 -7 30 C-6.33057519 23.54157198 -5.02951577 17.36847502 -3.5 11.0625 C-3.27441406 10.10537109 -3.04882812 9.14824219 -2.81640625 8.16210938 C-1.12934028 1.12934028 -1.12934028 1.12934028 0 0 Z " fill="#CEEAF6" transform="translate(171,166)"/>
<path d="M0 0 C4.93438222 1.69777426 8.84647445 3.81763631 12.5 7.5625 C13.96562507 10.92122412 14.37166415 13.39761409 14.8125 17 C15.3043842 21.29735819 15.3043842 21.29735819 17.640625 24.7578125 C18.90219392 25.65527006 20.17028636 26.54364123 21.4453125 27.421875 C24.12254475 30.13946754 23.90322017 33.36449031 24.02734375 37.0234375 C24.01832031 37.67570312 24.00929688 38.32796875 24 39 C23.01 39.495 23.01 39.495 22 40 C21.49632243 38.54293274 20.99717444 37.08429904 20.5 35.625 C20.2215625 34.81289062 19.943125 34.00078125 19.65625 33.1640625 C19 31 19 31 19 29 C18.40832031 28.80664062 17.81664062 28.61328125 17.20703125 28.4140625 C13.0853355 27.05585281 9.0049476 25.67949415 5 24 C4.80377759 19.78121808 5.19769832 16.82989106 7 13 C5.68 13.99 4.36 14.98 3 16 C2.34 14.02 1.68 12.04 1 10 C0.07316406 10.08378906 -0.85367187 10.16757813 -1.80859375 10.25390625 C-3.00613281 10.35574219 -4.20367187 10.45757812 -5.4375 10.5625 C-7.22994141 10.71912109 -7.22994141 10.71912109 -9.05859375 10.87890625 C-10.02925781 10.91886719 -10.99992187 10.95882812 -12 11 C-13 10 -13 10 -13.3125 7.1875 C-13 4 -13 4 -11.5625 1.625 C-7.67820263 -0.83821297 -4.47216983 -0.79984375 0 0 Z " fill="#A74345" transform="translate(277,56)"/>
<path d="M0 0 C0.8971875 0.309375 0.8971875 0.309375 1.8125 0.625 C3.17587381 12.62268949 -5.07639262 23.64768434 -12.1875 32.625 C-14.46073364 35.11621495 -16.35278692 36.73519128 -19.1875 38.625 C-21.38671875 38.2578125 -21.38671875 38.2578125 -23.1875 37.625 C-23.69887226 30.72147445 -22.05714374 25.87672386 -19.1875 19.625 C-14.7325 20.615 -14.7325 20.615 -10.1875 21.625 C-9.85324265 19.25125139 -9.85324265 19.25125139 -10.1875 16.625 C-12.0879467 14.78184329 -12.0879467 14.78184329 -14.1875 13.625 C-12.78064361 8.46652659 -6.00433242 -1.02931413 0 0 Z " fill="#688A4D" transform="translate(306.1875,127.375)"/>
<path d="M0 0 C1.3125 2.0625 1.3125 2.0625 2 4 C0.73046875 5.49739583 -0.5390625 6.99479167 -1.80859375 8.4921875 C-3.47512564 10.60130655 -4.0181045 12.08851089 -4.5625 14.75 C-3.89702629 18.5949592 -3.29725545 18.87458189 -0.25 21.0625 C0.48089844 21.55234375 1.21179688 22.0421875 1.96484375 22.546875 C4.48502295 24.34631197 6.11909282 26.56178699 8 29 C8.99 29.33 9.98 29.66 11 30 C11.6875 32.0625 11.6875 32.0625 12 34 C10.515 33.505 10.515 33.505 9 33 C9 32.34 9 31.68 9 31 C8.01 31 7.02 31 6 31 C5.34 32.32 4.68 33.64 4 35 C2.68 35 1.36 35 0 35 C0 34.34 0 33.68 0 33 C-0.66 32.67 -1.32 32.34 -2 32 C-1.01 31.505 -1.01 31.505 0 31 C0.33 30.01 0.66 29.02 1 28 C-0.11375 27.566875 -0.11375 27.566875 -1.25 27.125 C-3.56739797 26.17697356 -5.77917115 25.15154089 -8 24 C-8.33 24.99 -8.66 25.98 -9 27 C-11.16874252 26.49396008 -12.99967627 26.00016187 -15 25 C-15.125 19.25 -15.125 19.25 -14 17 C-13.72690486 14.47278622 -13.55442823 11.94588875 -13.37890625 9.41015625 C-13 7 -13 7 -11 4 C-10.34 4 -9.68 4 -9 4 C-8.8453125 3.0409375 -8.8453125 3.0409375 -8.6875 2.0625 C-8.460625 1.381875 -8.23375 0.70125 -8 0 C-4.66411172 -1.11196276 -3.29427581 -1.09809194 0 0 Z " fill="#EAB281" transform="translate(260,114)"/>
<path d="M0 0 C2.43868168 -0.1079859 4.87259133 -0.18726589 7.3125 -0.25 C8.00279297 -0.28351563 8.69308594 -0.31703125 9.40429688 -0.3515625 C14.46642786 -0.44938146 14.46642786 -0.44938146 16.90625 1.60546875 C20.65182583 9.8056044 20.32561392 20.1360656 20 29 C18.23593005 26.72140964 16.81777284 24.64313849 15.5 22.0625 C12.33538289 18.18584404 9.14640042 16.98724901 4.55859375 15.17578125 C2.06835516 14.03141207 0.85198132 12.95002739 -1 11 C-3.60611077 10.27802838 -3.60611077 10.27802838 -6 10 C-4.63016497 6.83884224 -4.0109362 6.0072908 -1 4 C-0.27617533 1.94074861 -0.27617533 1.94074861 0 0 Z " fill="#CFE9F6" transform="translate(201,122)"/>
<path d="M0 0 C1.3125 2.0625 1.3125 2.0625 2 4 C2.99 3.67 3.98 3.34 5 3 C4.67 6.63 4.34 10.26 4 14 C5.32 14.66 6.64 15.32 8 16 C6.33333333 17.66666667 4.66666667 19.33333333 3 21 C2.54625 21.5775 2.0925 22.155 1.625 22.75 C-1.00557703 24.77352079 -3.76972531 24.76072039 -7 25 C-8 24 -8 24 -8.09765625 22.15234375 C-8.06510417 20.1015625 -8.03255208 18.05078125 -8 16 C-9.98 16.99 -11.96 17.98 -14 19 C-14.40368295 12.54107286 -13.5915262 7.93891422 -11 2 C-11.66 1.67 -12.32 1.34 -13 1 C-3.92307692 -1.61538462 -3.92307692 -1.61538462 0 0 Z " fill="#FAA77F" transform="translate(279,66)"/>
<path d="M0 0 C2.78769825 0.81879762 5.32053874 1.85165946 8 3 C8 3.66 8 4.32 8 5 C8.61875 5.268125 9.2375 5.53625 9.875 5.8125 C12 7 12 7 14 10 C14.59292965 14.40462027 14.21679616 17.20050965 11.8125 20.875 C9.90701368 23.30857824 9.21164939 23.9294502 6.1875 24.9375 C5.465625 24.958125 4.74375 24.97875 4 25 C4.309375 24.4225 4.61875 23.845 4.9375 23.25 C5.92583364 21.15705816 6.5168613 19.25464725 7 17 C5.35 17.66 3.7 18.32 2 19 C2.495 14.545 2.495 14.545 3 10 C-1.8043208 7.5978396 -6.73103895 7.38877771 -12 7 C-11.6875 4.625 -11.6875 4.625 -11 2 C-7.26284065 -0.49143957 -4.32704117 -0.52843512 0 0 Z " fill="#5B2518" transform="translate(190,15)"/>
<path d="M0 0 C21.78 0 43.56 0 66 0 C66.495 1.98 66.495 1.98 67 4 C44.89 4 22.78 4 0 4 C0 2.68 0 1.36 0 0 Z " fill="#FEEBEC" transform="translate(172,294)"/>
<path d="M0 0 C22.11 0 44.22 0 67 0 C66.67 1.32 66.34 2.64 66 4 C44.55 4 23.1 4 1 4 C0.67 2.68 0.34 1.36 0 0 Z " fill="#FEE8E8" transform="translate(172,302)"/>
<path d="M0 0 C0.495 1.485 0.495 1.485 1 3 C15.52 3 30.04 3 45 3 C45 3.66 45 4.32 45 5 C12 5 -21 5 -55 5 C-55 4.34 -55 3.68 -55 3 C-36.59154987 2.19590665 -18.41068948 1.84161591 0 3 C0 2.01 0 1.02 0 0 Z " fill="#D96C79" transform="translate(193,266)"/>
<path d="M0 0 C2.72288417 2.39740822 4.06791522 4.83597645 5.5625 8.125 C5.97628906 9.01445312 6.39007813 9.90390625 6.81640625 10.8203125 C9.83404918 18.92711563 10.28905066 26.51991743 10.1875 35.125 C10.18685547 36.17042969 10.18621094 37.21585938 10.18554688 38.29296875 C10.15518869 43.62926268 9.93072154 48.74328475 9 54 C5.23975384 51.49316923 4.60807914 49.13506066 3 45 C3.66 45 4.32 45 5 45 C5.3303197 32.52916095 5.29480797 21.10239222 2 9 C1.59494548 7.21039549 1.19790568 5.41893867 0.8125 3.625 C0.544375 2.42875 0.27625 1.2325 0 0 Z " fill="#B14A23" transform="translate(174,171)"/>
<path d="M0 0 C0.78375 0.556875 1.5675 1.11375 2.375 1.6875 C7.54207411 3.55833718 11.02343005 1.9178481 16 0 C16.103125 0.639375 16.20625 1.27875 16.3125 1.9375 C16.6528125 2.9584375 16.6528125 2.9584375 17 4 C17.99 4.33 18.98 4.66 20 5 C19.67 6.65 19.34 8.3 19 10 C18.401875 9.814375 17.80375 9.62875 17.1875 9.4375 C14.83591238 8.77906313 14.83591238 8.77906313 12 10 C12.33 8.68 12.66 7.36 13 6 C12.34 6 11.68 6 11 6 C10.855625 7.134375 10.71125 8.26875 10.5625 9.4375 C10 13 10 13 9 14 C7.33382885 14.04063832 5.66611905 14.042721 4 14 C4 13.34 4 12.68 4 12 C1.69 11.34 -0.62 10.68 -3 10 C-3 8.68 -3 7.36 -3 6 C-3.66 5.34 -4.32 4.68 -5 4 C-3.68 4 -2.36 4 -1 4 C-0.67 2.68 -0.34 1.36 0 0 Z " fill="#ED6D64" transform="translate(175,279)"/>
<path d="M0 0 C3.08027302 0.69742031 4.60824758 1.04550628 7 3 C8.81066434 6.88237538 9.97116812 10.70405043 10 15 C7.70869193 17.91486059 5.39285964 19.5459173 2 21 C2 19.68 2 18.36 2 17 C1.34 17 0.68 17 0 17 C-1.49341703 14.01316593 -1.13175178 11.25600226 -1.125 7.9375 C-1.12757813 6.66777344 -1.13015625 5.39804688 -1.1328125 4.08984375 C-1 1 -1 1 0 0 Z " fill="#FAAB81" transform="translate(289,82)"/>
<path d="M0 0 C1.73875874 2.60813811 2.52207369 4.28317361 3.40234375 7.203125 C3.65306641 8.01910156 3.90378906 8.83507812 4.16210938 9.67578125 C4.41798828 10.52527344 4.67386719 11.37476563 4.9375 12.25 C6.67418072 17.99748044 8.5220386 23.52629423 11 29 C14.96 28.505 14.96 28.505 19 28 C16.03 31.465 16.03 31.465 13 35 C4.36158288 31.18302499 4.36158288 31.18302499 2 27 C1.0842972 22.41996302 0.88756544 17.84685545 0.6875 13.1875 C0.57825195 11.28967773 0.57825195 11.28967773 0.46679688 9.35351562 C0.29034453 6.23619078 0.13554013 3.11932744 0 0 Z " fill="#B04C28" transform="translate(218,163)"/>
<path d="M0 0 C2.5 0.125 2.5 0.125 3.5 1.125 C3.21269945 3.46444736 2.88063221 5.7989143 2.5 8.125 C3.82 8.455 5.14 8.785 6.5 9.125 C6.83 10.775 7.16 12.425 7.5 14.125 C4.377998 16.20633467 3.56733011 16.3987822 0 16.375 C-1.16015625 16.38273437 -1.16015625 16.38273437 -2.34375 16.390625 C-4.5 16.125 -4.5 16.125 -7.5 14.125 C-7.04836151 11.59582446 -6.57180488 10.21403805 -4.9375 8.1875 C-3.16637511 5.64632081 -3.33622831 4.15477627 -3.5 1.125 C-2.5 0.125 -2.5 0.125 0 0 Z " fill="#FEE6E7" transform="translate(147.5,286.875)"/>
<path d="M0 0 C2.91517292 1.07401108 4.77810176 1.77810176 7 4 C6.625 7.125 6.625 7.125 6 10 C5.01 10 4.02 10 3 10 C2.67 9.34 2.34 8.68 2 8 C1.62488281 8.49371094 1.24976562 8.98742187 0.86328125 9.49609375 C-3.36878216 14.7941681 -3.36878216 14.7941681 -6.875 15.9375 C-7.57625 15.958125 -8.2775 15.97875 -9 16 C-9 13.69 -9 11.38 -9 9 C-9.66 9 -10.32 9 -11 9 C-11 7.35 -11 5.7 -11 4 C-9.35 3.34 -7.7 2.68 -6 2 C-5.67 3.98 -5.34 5.96 -5 8 C-4.01 8 -3.02 8 -2 8 C-2 7.34 -2 6.68 -2 6 C-1.34 6 -0.68 6 0 6 C0 4.02 0 2.04 0 0 Z " fill="#EFA998" transform="translate(95,83)"/>
<path d="M0 0 C1.84375255 1.35208521 3.41023308 2.6172797 4.875 4.375 C4.875 5.035 4.875 5.695 4.875 6.375 C5.865 6.705 6.855 7.035 7.875 7.375 C4.76128118 10.75560901 2.33412603 13.08420036 -2.125 14.375 C-3.115 14.375 -4.105 14.375 -5.125 14.375 C-5.269375 13.1375 -5.41375 11.9 -5.5625 10.625 C-5.91188502 7.80995501 -6.32879366 5.1048503 -7.125 2.375 C-2.72628617 -0.80184887 -2.72628617 -0.80184887 0 0 Z " fill="#F3C8C9" transform="translate(181.125,223.625)"/>
<path d="M0 0 C0.66 0 1.32 0 2 0 C2.33 3.63 2.66 7.26 3 11 C4.01320312 10.95359375 5.02640625 10.9071875 6.0703125 10.859375 C7.42184532 10.82183242 8.77341028 10.78543494 10.125 10.75 C10.79015625 10.71648437 11.4553125 10.68296875 12.140625 10.6484375 C17.28859124 10.54749699 20.05344636 11.76730827 24 15 C28 20.15789474 28 20.15789474 28 24 C28.66 24.33 29.32 24.66 30 25 C29.98839844 26.16917969 29.97679687 27.33835938 29.96484375 28.54296875 C29.95546087 30.09114423 29.9463612 31.63932145 29.9375 33.1875 C29.92912109 33.95642578 29.92074219 34.72535156 29.91210938 35.51757812 C29.90888672 36.26845703 29.90566406 37.01933594 29.90234375 37.79296875 C29.89710693 38.4789917 29.89187012 39.16501465 29.88647461 39.87182617 C29.94896658 42.05880393 29.94896658 42.05880393 30.5 44.390625 C31.05842808 47.30492156 31.11286863 49.99061646 31.09765625 52.95703125 C31.09443359 54.06884766 31.09121094 55.18066406 31.08789062 56.32617188 C31.07951172 57.47666016 31.07113281 58.62714844 31.0625 59.8125 C31.05798828 60.98232422 31.05347656 62.15214844 31.04882812 63.35742188 C31.0370693 66.23833358 31.02063426 69.11914044 31 72 C30.67 72 30.34 72 30 72 C29.95654953 71.39944794 29.91309906 70.79889587 29.86833191 70.18014526 C29.41269231 63.91707103 28.93935009 57.65551196 28.45581055 51.39453125 C28.27778175 49.05925991 28.10423533 46.72364228 27.93530273 44.38769531 C27.69137749 41.02567581 27.43123869 37.66524071 27.16796875 34.3046875 C27.09595749 33.26384003 27.02394623 32.22299255 26.94975281 31.15060425 C26.51560522 25.81966932 26.01249337 21.5822938 23 17 C16.78843156 11.89271039 9.79091505 12.21611415 2 12 C1.34 8.04 0.68 4.08 0 0 Z " fill="#F0B288" transform="translate(200,102)"/>
<path d="M0 0 C3.36545274 3.53711877 3.62565003 7.10815951 3.94921875 11.7734375 C4.01156204 12.5336319 4.07390533 13.29382629 4.13813782 14.07705688 C4.2676916 15.68873931 4.39084774 17.30094701 4.50805664 18.91357422 C4.68444279 21.33306428 4.88037947 23.75030351 5.08007812 26.16796875 C5.82108023 35.4679574 6.17887677 44.66622883 6 54 C5.01 54.495 5.01 54.495 4 55 C3.30030318 52.75376301 2.61564957 50.50283586 1.9375 48.25 C1.55464844 46.99703125 1.17179688 45.7440625 0.77734375 44.453125 C0.07343172 41.3261992 -0.16653785 39.90533954 1 37 C1 37.99 1 38.98 1 40 C1.66 40 2.32 40 3 40 C2.47215252 22.70601197 2.47215252 22.70601197 0.40234375 5.546875 C0 3 0 3 0 0 Z " fill="#FEF3E7" transform="translate(224,121)"/>
<path d="M0 0 C2.625 0.9375 2.625 0.9375 5 2 C5 5 5 5 3.125 7.1875 C0.4132567 10.77657202 -0.10894507 13.61897991 -1 18 C-4.465 16.02 -4.465 16.02 -8 14 C-7.60002115 8.53362233 -5.558228 5.02379055 -2 1 C-1.34 0.67 -0.68 0.34 0 0 Z " fill="#678B4F" transform="translate(256,114)"/>
<path d="M0 0 C2.76276177 0.52268466 5.3260876 1.10869587 8 2 C8 2.66 8 3.32 8 4 C10.64 4 13.28 4 16 4 C15.34 4.66 14.68 5.32 14 6 C14.33 6.99 14.66 7.98 15 9 C14.67 9.99 14.34 10.98 14 12 C13.01 11.67 12.02 11.34 11 11 C11 9.68 11 8.36 11 7 C8.7522025 9.05233685 7.9977758 10.00667261 7 13 C5 13 5 13 3.375 11.5 C2.92125 11.005 2.4675 10.51 2 10 C1.01 10.33 0.02 10.66 -1 11 C-1.144375 10.05125 -1.28875 9.1025 -1.4375 8.125 C-1.82935399 5.1065506 -1.82935399 5.1065506 -3 3 C-2.01 3 -1.02 3 0 3 C0 2.01 0 1.02 0 0 Z " fill="#EB7161" transform="translate(203,278)"/>
<path d="M0 0 C0.33 0 0.66 0 1 0 C1.12375 1.175625 1.12375 1.175625 1.25 2.375 C1.72806339 5.14749104 1.72806339 5.14749104 4.0625 6.3125 C4.701875 6.539375 5.34125 6.76625 6 7 C4.33333333 8.66666667 2.66666667 10.33333333 1 12 C0.54625 12.5775 0.0925 13.155 -0.375 13.75 C-3.00557703 15.77352079 -5.76972531 15.76072039 -9 16 C-10 15 -10 15 -10.09765625 13.15234375 C-10.06510417 11.1015625 -10.03255208 9.05078125 -10 7 C-6.38026598 5.68373308 -3.90432869 5 0 5 C0 3.35 0 1.7 0 0 Z " fill="#FBAC7F" transform="translate(281,75)"/>
<path d="M0 0 C3.40312738 1.05875074 6.01353231 2.00902154 9 4 C8.35241592 7.49695404 7.09758712 10.12552877 5 13 C3.0625 14 3.0625 14 1 14 C-1.25 13 -1.25 13 -3 11 C-3.49125459 7.14014247 -3.56021138 4.91034349 -1.5 1.5625 C-1.005 1.046875 -0.51 0.53125 0 0 Z " fill="#F5D0C6" transform="translate(252,138)"/>
<path d="M0 0 C1.43088528 2.86177057 0.59991697 4.93375773 0 8 C-0.66 8 -1.32 8 -2 8 C-2 11.96 -2 15.92 -2 20 C-2.99 20.33 -3.98 20.66 -5 21 C-5 22.65 -5 24.3 -5 26 C-2.81970541 27.37823022 -2.81970541 27.37823022 0.4375 25.9375 C2.2009375 25.4734375 2.2009375 25.4734375 4 25 C4.99 25.66 5.98 26.32 7 27 C4.46874724 28.41750155 2.27509226 29.1907652 -0.5625 29.9375 C-3.74136983 30.92005977 -5.0201464 31.43783652 -7 34 C-7.99 33.67 -8.98 33.34 -10 33 C-10.7287109 28.38483095 -9.57149007 26.08758674 -7.0625 22.375 C-3.87800891 17.45689577 -3.32400271 13.55934286 -3.30078125 7.76171875 C-2.94752357 4.51817094 -1.83641631 2.66013866 0 0 Z " fill="#57231E" transform="translate(81,59)"/>
<path d="M0 0 C-0.33 0.66 -0.66 1.32 -1 2 C-1.99 1.67 -2.98 1.34 -4 1 C-8.28025618 4.95791309 -8.28025618 4.95791309 -11 10 C-11 11.32 -11 12.64 -11 14 C-9.07977297 15.77409808 -9.07977297 15.77409808 -7 17 C-8.32 19.31 -9.64 21.62 -11 24 C-10.01 24.33 -9.02 24.66 -8 25 C-8.33 25.66 -8.66 26.32 -9 27 C-11.16874252 26.49396008 -12.99967627 26.00016187 -15 25 C-15.125 19.25 -15.125 19.25 -14 17 C-13.72690486 14.47278622 -13.55442823 11.94588875 -13.37890625 9.41015625 C-13 7 -13 7 -11 4 C-10.34 4 -9.68 4 -9 4 C-8.8453125 3.0409375 -8.8453125 3.0409375 -8.6875 2.0625 C-8.460625 1.381875 -8.23375 0.70125 -8 0 C-4.71023192 -1.09658936 -3.28696233 -0.79953138 0 0 Z " fill="#E7B178" transform="translate(260,114)"/>
<path d="M0 0 C0.66 0 1.32 0 2 0 C2.43957031 0.48082031 2.87914062 0.96164062 3.33203125 1.45703125 C5.46686683 3.43187915 6.82235679 3.47988093 9.6875 3.6875 C10.49574219 3.75324219 11.30398437 3.81898438 12.13671875 3.88671875 C12.75160156 3.92410156 13.36648437 3.96148437 14 4 C13.34 4.66 12.68 5.32 12 6 C12.33 6.99 12.66 7.98 13 9 C12.67 9.66 12.34 10.32 12 11 C13.32 10.34 14.64 9.68 16 9 C16.99 10.485 16.99 10.485 18 12 C14.37673261 13.2077558 13.35853631 12.54311128 10 11 C10 9.35 10 7.7 10 6 C7.9837767 6.71563266 7.9837767 6.71563266 6 8 C5.67 9.32 5.34 10.64 5 12 C1.37 12 -2.26 12 -6 12 C-5.34 10.35 -4.68 8.7 -4 7 C-3.34 7 -2.68 7 -2 7 C-2.33 8.32 -2.66 9.64 -3 11 C-2.38125 10.649375 -1.7625 10.29875 -1.125 9.9375 C-0.073125 9.4734375 -0.073125 9.4734375 1 9 C1.66 9.33 2.32 9.66 3 10 C3.77242269 8.16299211 3.77242269 8.16299211 4 6 C2.64594139 4.39588754 2.64594139 4.39588754 1 3 C0.67 2.01 0.34 1.02 0 0 Z " fill="#EA7560" transform="translate(190,278)"/>
<path d="M0 0 C0.66 0 1.32 0 2 0 C3.75985358 13.68775009 -4.11833443 24.49773026 -12 35 C-12.66 36.03125 -13.32 37.0625 -14 38.125 C-16 40 -16 40 -19.75 40.3125 C-20.8225 40.209375 -21.895 40.10625 -23 40 C-22.01 39.34 -21.02 38.68 -20 38 C-10.66385006 31.27797205 -2.8446647 19.2238471 0 8 C0.2668012 5.23250283 0.20643106 2.78681929 0 0 Z " fill="#E5AF77" transform="translate(307,127)"/>
<path d="M0 0 C0.70125 0.721875 1.4025 1.44375 2.125 2.1875 C3.08090632 3.12747454 4.03933741 4.06488695 5 5 C6.299375 6.2684375 6.299375 6.2684375 7.625 7.5625 C14.62770923 13.19317714 23.06039215 14.65101251 31.8359375 14.41015625 C35.9533909 13.87641229 39.35588656 12.58478182 43.07421875 10.77734375 C44.02748047 10.39255859 44.02748047 10.39255859 45 10 C45.66 10.33 46.32 10.66 47 11 C45.730447 11.64834654 44.45930294 12.29357815 43.1875 12.9375 C42.47980469 13.29714844 41.77210937 13.65679687 41.04296875 14.02734375 C33.63228645 17.55556534 22.60013392 17.38892932 14.765625 15.0234375 C12.35097484 13.83074666 10.19187392 12.5605431 8 11 C6.96875 10.278125 5.9375 9.55625 4.875 8.8125 C4.25625 8.214375 3.6375 7.61625 3 7 C3 6.34 3 5.68 3 5 C1.68 4.34 0.36 3.68 -1 3 C-0.67 2.01 -0.34 1.02 0 0 Z " fill="#E4A281" transform="translate(66,91)"/>
<path d="M0 0 C1.65 0.33 3.3 0.66 5 1 C4.67 1.99 4.34 2.98 4 4 C3.34 4 2.68 4 2 4 C2.185625 4.928125 2.37125 5.85625 2.5625 6.8125 C3 10 3 10 2 13 C1.34 13.66 0.68 14.32 0 15 C-0.33 14.01 -0.66 13.02 -1 12 C-1.99 13.485 -1.99 13.485 -3 15 C-3.66 14.67 -4.32 14.34 -5 14 C-5 12.66666667 -5 11.33333333 -5 10 C-5.66 9.34 -6.32 8.68 -7 8 C-6.67 7.01 -6.34 6.02 -6 5 C-4.35 5.33 -2.7 5.66 -1 6 C-1 5.01 -1 4.02 -1 3 C-0.67 2.01 -0.34 1.02 0 0 Z " fill="#B56654" transform="translate(207,145)"/>
<path d="M0 0 C0.66 0.66 1.32 1.32 2 2 C4.7510296 2.33243628 4.7510296 2.33243628 8.01025391 2.31884766 C9.90198837 2.34865219 9.90198837 2.34865219 11.8319397 2.37905884 C13.21347885 2.39093614 14.59501986 2.40259895 15.9765625 2.4140625 C17.38619124 2.4327671 18.79580871 2.45233998 20.20541382 2.4727478 C23.91745362 2.52415012 27.62952977 2.56373219 31.34173584 2.60089111 C35.12895759 2.64088022 38.91602715 2.69199571 42.703125 2.7421875 C50.13531238 2.83904257 57.56757317 2.92341637 65 3 C65 3.33 65 3.66 65 4 C43.88 4.33 22.76 4.66 1 5 C0.67 3.35 0.34 1.7 0 0 Z " fill="#E16B72" transform="translate(171,303)"/>
<path d="M0 0 C4.94627566 4.59712679 7.81435113 9.90922345 8.12548828 16.76513672 C8.0642735 23.52775916 7.59511923 30.26521993 7 37 C6.67 37 6.34 37 6 37 C5.85304687 35.07800781 5.85304687 35.07800781 5.703125 33.1171875 C4.90307719 23.58220656 3.77892281 14.78129227 0.8046875 5.65234375 C0 3 0 3 0 0 Z " fill="#A35539" transform="translate(174,171)"/>
<path d="M0 0 C2.3129482 2.3129482 2.49580975 3.47904875 3.125 6.625 C3.29257813 7.44226563 3.46015625 8.25953125 3.6328125 9.1015625 C3.81457031 10.04128906 3.81457031 10.04128906 4 11 C2 9 2 9 1 6 C-1.78337692 13.9525055 -4.0259304 21.50589977 -3 30 C-2.34 30.99 -1.68 31.98 -1 33 C-1.33 33.99 -1.66 34.98 -2 36 C-2.268125 35.195625 -2.53625 34.39125 -2.8125 33.5625 C-3.204375 32.716875 -3.59625 31.87125 -4 31 C-4.99 30.67 -5.98 30.34 -7 30 C-6.33057519 23.54157198 -5.02951577 17.36847502 -3.5 11.0625 C-3.27441406 10.10537109 -3.04882812 9.14824219 -2.81640625 8.16210938 C-1.12934028 1.12934028 -1.12934028 1.12934028 0 0 Z " fill="#DCD8DA" transform="translate(171,166)"/>
<path d="M0 0 C0.33 0 0.66 0 1 0 C1.33 3.63 1.66 7.26 2 11 C2.66 11 3.32 11 4 11 C4 12.32 4 13.64 4 15 C-5.14021116 18.32371315 -14.18511929 18.06840648 -23 14 C-23 13.67 -23 13.34 -23 13 C-21.35 13 -19.7 13 -18 13 C-18 13.66 -18 14.32 -18 15 C-12.39 15 -6.78 15 -1 15 C-0.67 10.05 -0.34 5.1 0 0 Z " fill="#F2D8CA" transform="translate(287,88)"/>
<path d="M0 0 C3.50323411 0.55314223 6.96916605 1.20214372 10.4375 1.9375 C17.23904013 3.32280603 24.11613528 4.13722229 31 5 C31 5.99 31 6.98 31 8 C5.26018809 5.26018809 5.26018809 5.26018809 0 0 Z " fill="#E3B884" transform="translate(272,121)"/>
<path d="M0 0 C2.97 0.495 2.97 0.495 6 1 C6.43146845 6.12254029 6.85856067 11.24542047 7.28173828 16.36865234 C7.42606621 18.10865947 7.57155464 19.84857076 7.71826172 21.58837891 C7.92987087 24.10033791 8.13719659 26.61262082 8.34375 29.125 C8.40937134 29.89303955 8.47499268 30.6610791 8.54260254 31.45239258 C8.93751219 36.31897205 9.05812828 41.11722456 9 46 C8.67 46 8.34 46 8 46 C6.18950986 38.95594725 5.62474297 32.31930683 5.4375 25.0625 C5.21788217 17.66558473 4.84812445 10.35414511 4 3 C2.68 2.67 1.36 2.34 0 2 C0 1.34 0 0.68 0 0 Z " fill="#FEF5E6" transform="translate(227,196)"/>
<path d="M0 0 C0.33 2.64 0.66 5.28 1 8 C2.98 8 4.96 8 7 8 C7 8.66 7 9.32 7 10 C0.375 10.25 0.375 10.25 -3 8 C-3.99 7.67 -4.98 7.34 -6 7 C-6.144375 8.093125 -6.28875 9.18625 -6.4375 10.3125 C-7 14 -7 14 -8 17 C-9.60745059 13.78509882 -9.40305242 11.5698929 -9 8 C-4.58813264 0 -4.58813264 0 0 0 Z " fill="#EDDAD0" transform="translate(271,82)"/>
<path d="M0 0 C0.77923828 0.01353516 1.55847656 0.02707031 2.36132812 0.04101562 C4.26202404 0.07599776 6.16235834 0.12979041 8.0625 0.1875 C8.5575 1.6725 8.5575 1.6725 9.0625 3.1875 C7.91394531 3.11789062 6.76539063 3.04828125 5.58203125 2.9765625 C-5.24367775 2.52665987 -12.42727186 3.61413578 -21.9375 9.1875 C-22.9275 9.6825 -22.9275 9.6825 -23.9375 10.1875 C-23.875 8.375 -23.875 8.375 -22.9375 6.1875 C-20.57023794 5.00386897 -18.39865322 4.10050845 -15.9375 3.1875 C-14.88691406 2.66671875 -13.83632812 2.1459375 -12.75390625 1.609375 C-8.50323762 -0.22650147 -4.5654247 -0.15257203 0 0 Z " fill="#E9B58E" transform="translate(188.9375,0.8125)"/>
<path d="M0 0 C0.33 0 0.66 0 1 0 C1 2.31 1 4.62 1 7 C-3.25781887 8.03969996 -7.39204118 8.15522447 -11.75 8.125 C-12.45793701 8.12089111 -13.16587402 8.11678223 -13.89526367 8.11254883 C-27.91975475 7.96319836 -27.91975475 7.96319836 -30.73046875 5.45703125 C-31.14941406 4.97621094 -31.56835938 4.49539062 -32 4 C-29.69 4 -27.38 4 -25 4 C-25 4.66 -25 5.32 -25 6 C-17.08 5.67 -9.16 5.34 -1 5 C-0.67 3.35 -0.34 1.7 0 0 Z " fill="#6F3C41" transform="translate(218,225)"/>
<path d="M0 0 C0.66 0.33 1.32 0.66 2 1 C2 1.66 2 2.32 2 3 C2.99 3 3.98 3 5 3 C5.33 4.65 5.66 6.3 6 8 C4.25 9.5625 4.25 9.5625 2 11 C-0.25 10.6875 -0.25 10.6875 -2 10 C-2.66 7.69 -3.32 5.38 -4 3 C-3.01 3 -2.02 3 -1 3 C-0.67 2.01 -0.34 1.02 0 0 Z " fill="#933727" transform="translate(174,215)"/>
<path d="M0 0 C7.08559682 10.62839524 5.89761534 27.01747731 4 39 C3.34 39 2.68 39 2 39 C1.34 37.02 0.68 35.04 0 33 C0.99 33 1.98 33 3 33 C3.41074358 24.11576846 2.4780843 16.07621114 0.65625 7.43359375 C0 4 0 4 0 0 Z " fill="#E0D7D4" transform="translate(175,177)"/>
<path d="M0 0 C-0.33 1.32 -0.66 2.64 -1 4 C1.29629994 5.14814997 3.07698086 5.30769809 5.625 5.5625 C6.44226563 5.64628906 7.25953125 5.73007812 8.1015625 5.81640625 C8.72804687 5.87699219 9.35453125 5.93757813 10 6 C9.67 6.99 9.34 7.98 9 9 C0.06290672 9.78091106 0.06290672 9.78091106 -4.0625 6.75 C-5.75959041 4.34122652 -6.67900526 2.88895266 -7 0 C-2.25 -1.125 -2.25 -1.125 0 0 Z " fill="#FA898F" transform="translate(142,297)"/>
<path d="M0 0 C0.33 0 0.66 0 1 0 C1.020625 1.03125 1.04125 2.0625 1.0625 3.125 C2.0714956 7.29551513 2.27959251 7.51409056 5.5 9.8125 C7.99628363 11.68598894 8.87787639 12.53593028 9.68359375 15.59765625 C9.91064947 18.08129646 10.03448782 20.507023 10 23 C9.34 23.33 8.68 23.66 8 24 C7.49632243 22.54293274 6.99717444 21.08429904 6.5 19.625 C6.2215625 18.81289062 5.943125 18.00078125 5.65625 17.1640625 C5 15 5 15 5 13 C3.02 12.34 1.04 11.68 -1 11 C-0.67 7.37 -0.34 3.74 0 0 Z " fill="#A94A45" transform="translate(291,72)"/>
<path d="M0 0 C0.66 0.33 1.32 0.66 2 1 C1.401875 1.70125 0.80375 2.4025 0.1875 3.125 C-1.97740961 5.97030977 -3.49596636 8.76632767 -5 12 C-5.66 12 -6.32 12 -7 12 C-8.0063902 16.16933084 -8.13368629 20.09265734 -8.125 24.375 C-8.12757812 25.64085938 -8.13015625 26.90671875 -8.1328125 28.2109375 C-8.00316698 31.90964792 -7.59347312 35.35437943 -7 39 C-11.47361515 32.28957728 -10.83245783 23.86347055 -10 16 C-8.14301062 9.68161291 -4.41392892 4.79226569 0 0 Z " fill="#F2E3C8" transform="translate(72,48)"/>
<path d="M0 0 C1.98 1.65 3.96 3.3 6 5 C5.34 5.66 4.68 6.32 4 7 C3.01 6.67 2.02 6.34 1 6 C1 17.22 1 28.44 1 40 C0.34 40 -0.32 40 -1 40 C-0.67 26.8 -0.34 13.6 0 0 Z " fill="#DDDBDF" transform="translate(220,190)"/>
<path d="M0 0 C0.93423645 3.01031744 1.04449911 3.86650268 0 7 C-0.14573058 8.47965926 -0.24663268 9.96403843 -0.31640625 11.44921875 C-0.35830078 12.29677734 -0.40019531 13.14433594 -0.44335938 14.01757812 C-0.50233398 15.33918945 -0.50233398 15.33918945 -0.5625 16.6875 C-0.60568359 17.58017578 -0.64886719 18.47285156 -0.69335938 19.39257812 C-0.79935353 21.59490108 -0.90142051 23.79733473 -1 26 C-0.34 26 0.32 26 1 26 C2.17076699 29.98060777 3.25749403 33.91621717 4 38 C1.37870466 36.68935233 1.10717415 35.46761584 -0.0625 32.8125 C-0.40410156 32.05582031 -0.74570313 31.29914062 -1.09765625 30.51953125 C-4.66167223 20.56805807 -3.92402246 9.64655521 0 0 Z " fill="#E2DED4" transform="translate(156,22)"/>
<path d="M0 0 C1.66514624 0.71896335 3.29571839 1.51699982 4.91796875 2.328125 C4.91796875 2.658125 4.91796875 2.988125 4.91796875 3.328125 C2.93796875 3.328125 0.95796875 3.328125 -1.08203125 3.328125 C-1.08203125 3.988125 -1.08203125 4.648125 -1.08203125 5.328125 C-2.73203125 4.998125 -4.38203125 4.668125 -6.08203125 4.328125 C-6.08203125 3.338125 -6.08203125 2.348125 -6.08203125 1.328125 C-7.73203125 1.328125 -9.38203125 1.328125 -11.08203125 1.328125 C-11.41203125 2.318125 -11.74203125 3.308125 -12.08203125 4.328125 C-12.74203125 4.328125 -13.40203125 4.328125 -14.08203125 4.328125 C-11.33807682 -1.74777408 -6.02903186 -1.94557876 0 0 Z " fill="#511D14" transform="translate(192.08203125,15.671875)"/>
<path d="M0 0 C0.66 0 1.32 0 2 0 C4.67400574 4.65983843 4.36773363 8.99641705 4.375 14.25 C4.39949219 15.16652344 4.42398437 16.08304688 4.44921875 17.02734375 C4.47670951 23.45101887 3.28261359 27.4727534 0 33 C-0.99 33 -1.98 33 -3 33 C-2.72285156 32.46890625 -2.44570313 31.9378125 -2.16015625 31.390625 C-1.79792969 30.68421875 -1.43570312 29.9778125 -1.0625 29.25 C-0.70285156 28.55390625 -0.34320313 27.8578125 0.02734375 27.140625 C3.81953416 18.79476016 2.67456788 8.52518512 0 0 Z " fill="#F6AD85" transform="translate(305,60)"/>
<path d="M0 0 C0.33 0.66 0.66 1.32 1 2 C-0.65 2 -2.3 2 -4 2 C-4 1.34 -4 0.68 -4 0 C-12.41192037 -0.10094304 -20.64399592 -0.10102642 -29 1 C-21.99025799 -6.00974201 -8.15058052 -3.52544951 0 0 Z " fill="#F3E6CC" transform="translate(109,43)"/>
<path d="M0 0 C0.33 0.66 0.66 1.32 1 2 C0.67 2.99 0.34 3.98 0 5 C-0.50208482 13.22017932 0.19984348 20.97965979 2 29 C1.34 28.67 0.68 28.34 0 28 C-0.59355614 25.35139573 -0.74209269 22.70802678 -1 20 C-1.66 20 -2.32 20 -3 20 C-3.08112454 17.41603321 -3.14054748 14.83462432 -3.1875 12.25 C-3.21263672 11.52039062 -3.23777344 10.79078125 -3.26367188 10.0390625 C-3.30981636 6.65513396 -3.25324128 4.42141443 -1.48828125 1.484375 C-0.75158203 0.74960937 -0.75158203 0.74960937 0 0 Z " fill="#E5B58F" transform="translate(154,26)"/>
<path d="M0 0 C2.4375 1.1875 2.4375 1.1875 3.4375 3.1875 C0.4675 2.6925 0.4675 2.6925 -2.5625 2.1875 C-2.8925 3.1775 -3.2225 4.1675 -3.5625 5.1875 C-5.625 5.875 -5.625 5.875 -7.5625 6.1875 C-7.5625 8.8275 -7.5625 11.4675 -7.5625 14.1875 C-8.5525 13.8575 -9.5425 13.5275 -10.5625 13.1875 C-10.16252115 7.72112233 -8.120728 4.21129055 -4.5625 0.1875 C-2.5625 -0.8125 -2.5625 -0.8125 0 0 Z " fill="#7B8747" transform="translate(258.5625,114.8125)"/>
<path d="M0 0 C0.99 0.33 1.98 0.66 3 1 C-1.24797929 6.94717101 -6.06415418 9.06180752 -13 11 C-24.19886899 12.20075401 -24.19886899 12.20075401 -29 9 C-24.05 9.33 -19.1 9.66 -14 10 C-14 9.34 -14 8.68 -14 8 C-13.39671875 7.80664062 -12.7934375 7.61328125 -12.171875 7.4140625 C-11.37265625 7.15367188 -10.5734375 6.89328125 -9.75 6.625 C-8.96109375 6.36976562 -8.1721875 6.11453125 -7.359375 5.8515625 C-5.09724629 5.03509883 -3.04993486 4.26080065 -1 3 C-0.67 2.01 -0.34 1.02 0 0 Z " fill="#E0C2C5" transform="translate(114,95)"/>
<path d="M0 0 C3.74278215 1.4488189 3.74278215 1.4488189 4.875 3.875 C5.02787435 6.47386397 4.33454536 7.8019253 3 10 C2.01 9.01 1.02 8.02 0 7 C-1.65 8.98 -3.3 10.96 -5 13 C-5.66 12.67 -6.32 12.34 -7 12 C-6.57847656 11.46890625 -6.15695313 10.9378125 -5.72265625 10.390625 C-5.17480469 9.68421875 -4.62695312 8.9778125 -4.0625 8.25 C-3.51722656 7.55390625 -2.97195312 6.8578125 -2.41015625 6.140625 C-1.02574346 4.03907872 -0.43713013 2.45678201 0 0 Z " fill="#9470B1" transform="translate(97,84)"/>
<path d="M0 0 C0.598125 0.309375 1.19625 0.61875 1.8125 0.9375 C4.08956772 2.10209704 4.08956772 2.10209704 7 3 C7.6875 5.0625 7.6875 5.0625 8 7 C7.01 6.67 6.02 6.34 5 6 C5 5.34 5 4.68 5 4 C4.01 4 3.02 4 2 4 C1.34 5.32 0.68 6.64 0 8 C-1.32 8 -2.64 8 -4 8 C-4 7.34 -4 6.68 -4 6 C-4.66 5.67 -5.32 5.34 -6 5 C-5.38125 4.731875 -4.7625 4.46375 -4.125 4.1875 C-1.7004767 3.04443152 -1.7004767 3.04443152 0 0 Z " fill="#DBBA81" transform="translate(264,141)"/>
<path d="M0 0 C1.48828125 1.14453125 1.48828125 1.14453125 3 3 C3.29296875 5.69921875 3.29296875 5.69921875 3.1875 8.6875 C3.16042969 9.68136719 3.13335937 10.67523438 3.10546875 11.69921875 C3.07066406 12.45847656 3.03585938 13.21773437 3 14 C1.22548597 11.66431487 -0.44475191 9.32613347 -2.0625 6.875 C-3.85486566 4.01766045 -3.85486566 4.01766045 -6 2 C-4.7934375 1.7834375 -4.7934375 1.7834375 -3.5625 1.5625 C-1.07896294 1.25864751 -1.07896294 1.25864751 0 0 Z " fill="#D1E7EF" transform="translate(218,137)"/>
<path d="M0 0 C3 3.625 3 3.625 3 7 C4.98 7 6.96 7 9 7 C8.67 7.66 8.34 8.32 8 9 C5.66842508 9.34541851 3.33491639 9.67794257 1 10 C0.01 10.66 -0.98 11.32 -2 12 C-2.05422947 10.5629191 -2.09289723 9.12524538 -2.125 7.6875 C-2.14820313 6.88699219 -2.17140625 6.08648437 -2.1953125 5.26171875 C-2 3 -2 3 0 0 Z " fill="#B25347" transform="translate(267,73)"/>
<path d="M0 0 C0.268125 0.639375 0.53625 1.27875 0.8125 1.9375 C1.88667752 4.33131686 1.88667752 4.33131686 5 5 C4.33333333 7 3.66666667 9 3 11 C2.01 10.34 1.02 9.68 0 9 C-0.99 9.33 -1.98 9.66 -3 10 C-3.33 8.02 -3.66 6.04 -4 4 C-3.01 4 -2.02 4 -1 4 C-0.67 2.68 -0.34 1.36 0 0 Z " fill="#FED994" transform="translate(205,279)"/>
<path d="M0 0 C0.268125 0.639375 0.53625 1.27875 0.8125 1.9375 C1.88667752 4.33131686 1.88667752 4.33131686 5 5 C4.67 6.65 4.34 8.3 4 10 C3.401875 9.814375 2.80375 9.62875 2.1875 9.4375 C-0.16408762 8.77906313 -0.16408762 8.77906313 -3 10 C-3 8.68 -3 7.36 -3 6 C-3.66 5.34 -4.32 4.68 -5 4 C-3.68 4 -2.36 4 -1 4 C-0.67 2.68 -0.34 1.36 0 0 Z " fill="#FEDA94" transform="translate(175,279)"/>
<path d="M0 0 C-0.928125 0.37125 -1.85625 0.7425 -2.8125 1.125 C-6.67708674 3.39828632 -7.37861781 4.86933584 -9 9 C-9.35996043 12.65800032 -9.35996043 12.65800032 -9.1875 16.375 C-9.16042969 17.62023437 -9.13335937 18.86546875 -9.10546875 20.1484375 C-9.07066406 21.08945313 -9.03585938 22.03046875 -9 23 C-9.66 23 -10.32 23 -11 23 C-11.5737662 6.48828381 -11.5737662 6.48828381 -8 1 C-5.11801374 -1.23121517 -3.3800101 -1.20714646 0 0 Z " fill="#E6A988" transform="translate(136,115)"/>
<path d="M0 0 C0.268125 0.639375 0.53625 1.27875 0.8125 1.9375 C1.88667752 4.33131686 1.88667752 4.33131686 5 5 C4.67 6.65 4.34 8.3 4 10 C3.401875 9.814375 2.80375 9.62875 2.1875 9.4375 C-0.16408762 8.77906313 -0.16408762 8.77906313 -3 10 C-3.33 8.02 -3.66 6.04 -4 4 C-3.01 4 -2.02 4 -1 4 C-0.67 2.68 -0.34 1.36 0 0 Z " fill="#FEDB93" transform="translate(220,279)"/>
<path d="M0 0 C0.268125 0.639375 0.53625 1.27875 0.8125 1.9375 C1.88667752 4.33131686 1.88667752 4.33131686 5 5 C4.67 6.65 4.34 8.3 4 10 C3.401875 9.814375 2.80375 9.62875 2.1875 9.4375 C-0.16408762 8.77906313 -0.16408762 8.77906313 -3 10 C-3.33 8.02 -3.66 6.04 -4 4 C-3.01 4 -2.02 4 -1 4 C-0.67 2.68 -0.34 1.36 0 0 Z " fill="#FEDB94" transform="translate(190,279)"/>
<path d="M0 0 C1.98 0.66 3.96 1.32 6 2 C6 2.33 6 2.66 6 3 C4.02 3.33 2.04 3.66 0 4 C0 5.98 0 7.96 0 10 C0.928125 10.2165625 0.928125 10.2165625 1.875 10.4375 C4 11 4 11 6 12 C5.34 12.66 4.68 13.32 4 14 C0.70285207 13.67028521 -0.6226839 13.3773161 -3 11 C-3.35173852 7.20122401 -3.52701444 4.85639847 -1.5 1.5625 C-1.005 1.046875 -0.51 0.53125 0 0 Z " fill="#FBC9B5" transform="translate(252,138)"/>
<path d="M0 0 C0.268125 0.639375 0.53625 1.27875 0.8125 1.9375 C1.88667752 4.33131686 1.88667752 4.33131686 5 5 C4.67 6.65 4.34 8.3 4 10 C3.401875 9.835 2.80375 9.67 2.1875 9.5 C-0.11344336 8.8885876 -0.11344336 8.8885876 -3 9 C-3.33 7.35 -3.66 5.7 -4 4 C-3.01 4 -2.02 4 -1 4 C-0.67 2.68 -0.34 1.36 0 0 Z " fill="#FEDD94" transform="translate(235,279)"/>
<path d="M0 0 C5.875 2.875 5.875 2.875 7 4 C7.04080783 5.99958364 7.04254356 8.00045254 7 10 C6.25234375 10.13277344 5.5046875 10.26554688 4.734375 10.40234375 C3.25710937 10.66724609 3.25710937 10.66724609 1.75 10.9375 C0.77546875 11.11152344 -0.1990625 11.28554687 -1.203125 11.46484375 C-3.49721795 11.90379729 -5.74291971 12.40348592 -8 13 C-8 12.34 -8 11.68 -8 11 C-7.01 11 -6.02 11 -5 11 C-5 10.34 -5 9.68 -5 9 C-2.03 9 0.94 9 4 9 C4.33 7.68 4.66 6.36 5 5 C4.175 4.54625 3.35 4.0925 2.5 3.625 C1.2625 2.820625 1.2625 2.820625 0 2 C0 1.34 0 0.68 0 0 Z " fill="#E1DDE3" transform="translate(174,122)"/>
<path d="M0 0 C1.32 0.66 2.64 1.32 4 2 C2.68 4.31 1.36 6.62 0 9 C0.99 9.33 1.98 9.66 3 10 C2.67 10.66 2.34 11.32 2 12 C-1.875 11.125 -1.875 11.125 -3 10 C-3.47274656 5.74528094 -2.39014869 3.48563351 0 0 Z " fill="#A9B06F" transform="translate(249,129)"/>
<path d="M0 0 C-0.99 0.66 -1.98 1.32 -3 2 C-2.91621094 2.69867187 -2.83242187 3.39734375 -2.74609375 4.1171875 C-2.64425781 5.02726562 -2.54242188 5.93734375 -2.4375 6.875 C-2.33308594 7.77992187 -2.22867188 8.68484375 -2.12109375 9.6171875 C-2 12 -2 12 -3 14 C-3.22622081 15.70363822 -3.40888473 17.41328701 -3.5625 19.125 C-3.64628906 20.03507812 -3.73007813 20.94515625 -3.81640625 21.8828125 C-3.87699219 22.58148438 -3.93757812 23.28015625 -4 24 C-4.33 24 -4.66 24 -5 24 C-4.98839844 22.85402344 -4.97679687 21.70804688 -4.96484375 20.52734375 C-4.95545758 18.99739748 -4.94635827 17.46744942 -4.9375 15.9375 C-4.92912109 15.18533203 -4.92074219 14.43316406 -4.91210938 13.65820312 C-4.89191659 8.99366882 -5.22404041 4.60076827 -6 0 C-3 -1 -3 -1 0 0 Z " fill="#DAE2E3" transform="translate(182,16)"/>
<path d="M0 0 C0 1.98 0 3.96 0 6 C-0.66 6 -1.32 6 -2 6 C-2 6.66 -2 7.32 -2 8 C-2.99 8 -3.98 8 -5 8 C-5.33 9.32 -5.66 10.64 -6 12 C-6 8.7 -6 5.4 -6 2 C-1.125 0 -1.125 0 0 0 Z " fill="#FBAD7E" transform="translate(95,83)"/>
<path d="M0 0 C0 0.99 0 1.98 0 3 C1.65 3.33 3.3 3.66 5 4 C5 4.33 5 4.66 5 5 C0.71 5 -3.58 5 -8 5 C-8 3 -8 3 -6.8125 1.375 C-4.44439338 -0.42149467 -2.90102749 -0.23521845 0 0 Z " fill="#551D0D" transform="translate(186,17)"/>
<path d="M0 0 C0 3.73986122 -1.33251188 5.66502375 -3 9 C-4.80031288 14.30092126 -5.52223495 19.45541082 -6 25 C-6.33 25 -6.66 25 -7 25 C-7.76954189 16.31272714 -6.08082015 9.7040938 -2 2 C-1.34 1.34 -0.68 0.68 0 0 Z " fill="#FEC8B5" transform="translate(255,55)"/>
<path d="M0 0 C0.99 0 1.98 0 3 0 C1.78526378 4.58900349 -0.73024996 6.90414423 -4.1484375 9.9609375 C-6 11 -6 11 -8.2265625 10.6640625 C-8.81179688 10.44492188 -9.39703125 10.22578125 -10 10 C-9.67 9.01 -9.34 8.02 -9 7 C-8.34 7.33 -7.68 7.66 -7 8 C-3.72736399 6.5273138 -2.27985952 5.57304568 -0.6875 2.3125 C-0.460625 1.549375 -0.23375 0.78625 0 0 Z " fill="#7B8545" transform="translate(293,155)"/>
<path d="M0 0 C0.99 0.33 1.98 0.66 3 1 C-1.39042858 4.42453429 -4.2902045 6.58221009 -10 7 C-10 5.02 -10 3.04 -10 1 C-9.46375 1.350625 -8.9275 1.70125 -8.375 2.0625 C-5.26725237 3.28924249 -3.20568297 2.72856431 0 2 C0 1.34 0 0.68 0 0 Z " fill="#D4C5DA" transform="translate(186,231)"/>
<path d="M0 0 C0.66 0 1.32 0 2 0 C2.99 1.98 3.98 3.96 5 6 C5.66 5.34 6.32 4.68 7 4 C9 5.8125 9 5.8125 11 8 C11 8.99 11 9.98 11 11 C5.73941076 9.89894644 3.75934007 7.92581294 0.8828125 3.65625 C0 2 0 2 0 0 Z " fill="#BF756A" transform="translate(170,114)"/>
<path d="M0 0 C4.84659077 0.59104765 8.60748167 1.97944157 13 4 C13 4.99 13 5.98 13 7 C13.66 7 14.32 7 15 7 C14.67 7.99 14.34 8.98 14 10 C13.40832031 9.51789062 12.81664063 9.03578125 12.20703125 8.5390625 C11.41683594 7.90742187 10.62664062 7.27578125 9.8125 6.625 C9.03519531 5.99851562 8.25789063 5.37203125 7.45703125 4.7265625 C5.03120618 3.02192866 2.78690955 1.98012094 0 1 C0 0.67 0 0.34 0 0 Z " fill="#EEB68A" transform="translate(104,41)"/>
<path d="M0 0 C3.465 1.98 3.465 1.98 7 4 C7 4.66 7 5.32 7 6 C4.125 6.625 4.125 6.625 1 7 C0.34 6.34 -0.32 5.68 -1 5 C-0.625 2.375 -0.625 2.375 0 0 Z " fill="#FBD2CF" transform="translate(252,143)"/>
<path d="M0 0 C2.375 0.6875 2.375 0.6875 5 2 C6.3125 4.625 6.3125 4.625 7 7 C4.23723823 6.47731534 1.6739124 5.89130413 -1 5 C-0.67 3.35 -0.34 1.7 0 0 Z " fill="#F1AF76" transform="translate(252,131)"/>
<path d="M0 0 C1.65 0 3.3 0 5 0 C-1.50109615 8.15429586 -1.50109615 8.15429586 -6 10 C-8.8125 9.6875 -8.8125 9.6875 -11 9 C-11 8.67 -11 8.34 -11 8 C-9.9275 7.979375 -8.855 7.95875 -7.75 7.9375 C-4.07050859 7.40918155 -4.07050859 7.40918155 -2.64453125 5.375 C-1.67093205 3.63165991 -0.82627341 1.8178015 0 0 Z " fill="#EFB294" transform="translate(282,81)"/>
<path d="M0 0 C0 0.66 0 1.32 0 2 C-1.0828125 2.5878125 -1.0828125 2.5878125 -2.1875 3.1875 C-5.91594122 5.59027323 -7.56387861 8.31101619 -10 12 C-10.33 11.34 -10.66 10.68 -11 10 C-10.328125 8.125 -10.328125 8.125 -9.25 6 C-8.90453125 5.29875 -8.5590625 4.5975 -8.203125 3.875 C-5.89896551 0.2841021 -4.18241683 0 0 0 Z " fill="#E99A92" transform="translate(176,47)"/>
<path d="M0 0 C0.66 0.33 1.32 0.66 2 1 C1.401875 1.53625 0.80375 2.0725 0.1875 2.625 C-2.21315594 5.23142645 -3.54018514 7.7884073 -5 11 C-5.66 11 -6.32 11 -7 11 C-7.33 11.99 -7.66 12.98 -8 14 C-7.67 11.36 -7.34 8.72 -7 6 C-6.01 5.67 -5.02 5.34 -4 5 C-3.67 4.01 -3.34 3.02 -3 2 C-2.01 1.34 -1.02 0.68 0 0 Z " fill="#F0B387" transform="translate(163,11)"/>
<path d="M0 0 C0.33 0 0.66 0 1 0 C1.33 3.63 1.66 7.26 2 11 C2.66 11 3.32 11 4 11 C4 12.32 4 13.64 4 15 C2.35 15.33 0.7 15.66 -1 16 C-0.67 10.72 -0.34 5.44 0 0 Z " fill="#E2C0AE" transform="translate(287,88)"/>
<path d="M0 0 C0.33 0 0.66 0 1 0 C1 2.97 1 5.94 1 9 C1.99 9 2.98 9 4 9 C4 11.31 4 13.62 4 16 C0.23975384 13.49316923 -0.39192086 11.13506066 -2 7 C-1.34 7 -0.68 7 0 7 C0 4.69 0 2.38 0 0 Z " fill="#AB5335" transform="translate(179,209)"/>
<path d="M0 0 C3.46941546 0.45822468 6.67395049 0.89131683 10 2 C9 5 9 5 7 7 C6.67 6.01 6.34 5.02 6 4 C5.01 5.485 5.01 5.485 4 7 C3.34 6.67 2.68 6.34 2 6 C2 4.66666667 2 3.33333333 2 2 C1.34 1.34 0.68 0.68 0 0 Z " fill="#7E6D51" transform="translate(200,153)"/>
<path d="M0 0 C1.43088528 2.86177057 0.59991697 4.93375773 0 8 C-0.66 8 -1.32 8 -2 8 C-2 11.96 -2 15.92 -2 20 C-2.66 20.33 -3.32 20.66 -4 21 C-3.91262287 18.43593328 -3.80570881 15.87517784 -3.6875 13.3125 C-3.66494141 12.59126953 -3.64238281 11.87003906 -3.61914062 11.12695312 C-3.39321663 6.62901178 -2.75062688 3.73878775 0 0 Z " fill="#52291B" transform="translate(81,59)"/>
<path d="M0 0 C0.99 0 1.98 0 3 0 C2.67 0.66 2.34 1.32 2 2 C1.34 2 0.68 2 0 2 C0 1.34 0 0.68 0 0 Z M-7 2 C-6.67 2.66 -6.34 3.32 -6 4 C-3.97536745 4.65213292 -3.97536745 4.65213292 -2 5 C-3.26418246 5.69965443 -4.53665402 6.38434763 -5.8125 7.0625 C-6.52019531 7.44535156 -7.22789062 7.82820312 -7.95703125 8.22265625 C-10 9 -10 9 -13 8 C-12.195625 7.38125 -11.39125 6.7625 -10.5625 6.125 C-7.96125481 4.25835959 -7.96125481 4.25835959 -7 2 Z " fill="#F4AD7F" transform="translate(266,145)"/>
<path d="M0 0 C0 3 0 3 -1 5 C-1.1421988 8.83936768 -1.17754676 12.32016639 0 16 C-1.65 14.68 -3.3 13.36 -5 12 C-4.74337755 10.55989519 -4.46909179 9.1229313 -4.1875 7.6875 C-4.03667969 6.88699219 -3.88585937 6.08648437 -3.73046875 5.26171875 C-2.92427764 2.76554413 -1.97947998 1.67577894 0 0 Z " fill="#F0B496" transform="translate(264,85)"/>
<path d="M0 0 C1.32 0.33 2.64 0.66 4 1 C3.34 4.63 2.68 8.26 2 12 C1.67 12 1.34 12 1 12 C1 9.03 1 6.06 1 3 C0.34 3 -0.32 3 -1 3 C-1.66 4.32 -2.32 5.64 -3 7 C-3.99 7 -4.98 7 -6 7 C-4.02 4.69 -2.04 2.38 0 0 Z " fill="#F0D9CC" transform="translate(285,82)"/>
<path d="M0 0 C0.66 0.33 1.32 0.66 2 1 C0.75803878 2.15454162 -0.49392845 3.29832562 -1.75 4.4375 C-2.79414063 5.39462891 -2.79414063 5.39462891 -3.859375 6.37109375 C-5.98792725 7.99081325 -7.39023405 8.58267256 -10 9 C-9.0919838 7.86800647 -8.17316174 6.74467637 -7.25 5.625 C-6.73953125 4.99851562 -6.2290625 4.37203125 -5.703125 3.7265625 C-3.89125541 1.88975893 -2.41535913 0.89348651 0 0 Z " fill="#DEE1DE" transform="translate(171,7)"/>
<path d="M0 0 C0.99 0 1.98 0 3 0 C3.33 2.64 3.66 5.28 4 8 C5.98 8 7.96 8 10 8 C10 8.66 10 9.32 10 10 C6.625 10.125 6.625 10.125 3 10 C1 8 1 8 0.875 4.875 C0.91625 3.92625 0.9575 2.9775 1 2 C0.34 1.67 -0.32 1.34 -1 1 C-0.67 0.67 -0.34 0.34 0 0 Z " fill="#EFCDBF" transform="translate(268,82)"/>
<path d="M0 0 C0.99 0.99 1.98 1.98 3 3 C2.34 4.32 1.68 5.64 1 7 C-0.9375 6.6875 -0.9375 6.6875 -3 6 C-3.33 5.01 -3.66 4.02 -4 3 C-3.01 3 -2.02 3 -1 3 C-0.67 2.01 -0.34 1.02 0 0 Z " fill="#95301F" transform="translate(174,215)"/>
<path d="M0 0 C0.33 0.66 0.66 1.32 1 2 C0.2884375 3.051875 0.2884375 3.051875 -0.4375 4.125 C-2.55052738 8.01297037 -2.22287115 10.61686741 -2 15 C-2.99 14.67 -3.98 14.34 -5 14 C-5.74737188 8.02102497 -3.3231898 4.67620279 0 0 Z " fill="#5F3B2E" transform="translate(76,78)"/>
<path d="M0 0 C0.99 0.33 1.98 0.66 3 1 C2.64989059 10.17286652 2.64989059 10.17286652 -0.0625 13.625 C-0.701875 14.07875 -1.34125 14.5325 -2 15 C-2.66 14.67 -3.32 14.34 -4 14 C-3.34 13.175 -2.68 12.35 -2 11.5 C0.61234126 7.65507519 0.31334134 4.54344936 0 0 Z " fill="#CFD8DE" transform="translate(203,24)"/>
<path d="M0 0 C1.32 0.66 2.64 1.32 4 2 C-0.29 2 -4.58 2 -9 2 C-9.33 2.99 -9.66 3.98 -10 5 C-10.66 5 -11.32 5 -12 5 C-9.45018605 -0.64601659 -5.89793441 -0.65656251 0 0 Z " fill="#55352F" transform="translate(190,15)"/>
<path d="M0 0 C2.00293347 3.00440021 2.49271626 4.70993945 3.125 8.1875 C3.37636719 9.53908203 3.37636719 9.53908203 3.6328125 10.91796875 C3.75398437 11.60503906 3.87515625 12.29210937 4 13 C3.34 13 2.68 13 2 13 C1.67 14.32 1.34 15.64 1 17 C0.67 11.39 0.34 5.78 0 0 Z " fill="#A94327" transform="translate(218,163)"/>
<path d="M0 0 C0.33 2.97 0.66 5.94 1 9 C-3.39158329 7.5361389 -3.87947433 5.02168662 -6 1 C-5.34 1 -4.68 1 -4 1 C-4 1.66 -4 2.32 -4 3 C-3.525625 2.505 -3.05125 2.01 -2.5625 1.5 C-1 0 -1 0 0 0 Z " fill="#F1E6CF" transform="translate(71,87)"/>
<path d="M0 0 C0.66 0 1.32 0 2 0 C2.33 3.3 2.66 6.6 3 10 C2.01 10.495 2.01 10.495 1 11 C-0.59555725 7.50971852 -1.32049797 4.84597567 -1 1 C-0.67 0.67 -0.34 0.34 0 0 Z " fill="#A64642" transform="translate(298,85)"/>
<path d="M0 0 C1.98 1.65 3.96 3.3 6 5 C5.34 5.66 4.68 6.32 4 7 C3.01 6.67 2.02 6.34 1 6 C1 7.65 1 9.3 1 11 C0.67 11 0.34 11 0 11 C0 7.37 0 3.74 0 0 Z " fill="#DCD1D0" transform="translate(220,190)"/>
<path d="M0 0 C1.31223496 3.93670488 0.24296256 6.12488144 -1 10 C-5.875 6.375 -5.875 6.375 -7 3 C-6.01 3.33 -5.02 3.66 -4 4 C-4 4.66 -4 5.32 -4 6 C-1.2160817 4.60804085 -1.02101003 2.84424221 0 0 Z " fill="#FECCBD" transform="translate(260,88)"/>
<path d="M0 0 C1.0554439 4.22177562 1.07636784 4.630021 -0.8125 8.1875 C-1.16957031 8.88230469 -1.52664063 9.57710937 -1.89453125 10.29296875 C-3 12 -3 12 -5 13 C-6.35439668 10.29120665 -6.06501451 7.99066732 -6 5 C-5.01 5.99 -4.02 6.98 -3 8 C-2.01 5.36 -1.02 2.72 0 0 Z " fill="#F5BDB3" transform="translate(306,81)"/>
<path d="M0 0 C0.99 0.33 1.98 0.66 3 1 C2.36934243 4.21852831 1.21979305 6.50801069 -0.5625 9.25 C-1.01753906 9.95640625 -1.47257812 10.6628125 -1.94140625 11.390625 C-2.29074219 11.92171875 -2.64007813 12.4528125 -3 13 C-4.1171875 9.28125 -4.1171875 9.28125 -3.0625 6.75 C-2.5365625 5.88375 -2.5365625 5.88375 -2 5 C-1.34 5 -0.68 5 0 5 C-0.33 4.01 -0.66 3.02 -1 2 C-0.67 1.34 -0.34 0.68 0 0 Z " fill="#E7A27A" transform="translate(67,48)"/>
<path d="M0 0 C1.07765625 0.00902344 2.1553125 0.01804688 3.265625 0.02734375 C4.08546875 0.03894531 4.9053125 0.05054688 5.75 0.0625 C5.75 0.3925 5.75 0.7225 5.75 1.0625 C4.75097656 1.19527344 3.75195312 1.32804687 2.72265625 1.46484375 C1.43230469 1.64144531 0.14195312 1.81804688 -1.1875 2 C-2.47527344 2.17402344 -3.76304687 2.34804688 -5.08984375 2.52734375 C-8.10466313 2.72412423 -8.10466313 2.72412423 -9.25 4.0625 C-10.91617115 4.10313832 -12.58388095 4.105221 -14.25 4.0625 C-9.55200171 0.20342998 -6.00681221 -0.06529144 0 0 Z " fill="#FECAB7" transform="translate(278.25,44.9375)"/>
<path d="M0 0 C2.97 0.495 2.97 0.495 6 1 C6.33 5.95 6.66 10.9 7 16 C4.89172945 12.83759418 4.66182535 11.49342531 4.375 7.8125 C4.30023438 6.91144531 4.22546875 6.01039063 4.1484375 5.08203125 C4.07496094 4.05142578 4.07496094 4.05142578 4 3 C2.68 2.67 1.36 2.34 0 2 C0 1.34 0 0.68 0 0 Z " fill="#FDE7D4" transform="translate(227,196)"/>
<path d="M0 0 C1.5625 1.1875 1.5625 1.1875 3 3 C2.6875 5.6875 2.6875 5.6875 2 8 C0.68 7.01 -0.64 6.02 -2 5 C-1.125 1.125 -1.125 1.125 0 0 Z " fill="#FDC8C5" transform="translate(178,113)"/>
<path d="M0 0 C0.33 0.66 0.66 1.32 1 2 C-1.90971331 8.51775781 -1.90971331 8.51775781 -6.25 10.4375 C-7.61125 10.7159375 -7.61125 10.7159375 -9 11 C-8.60167969 10.54109375 -8.20335938 10.0821875 -7.79296875 9.609375 C-5.08857938 6.47728415 -2.42008229 3.36122541 0 0 Z " fill="#E4AA89" transform="translate(122,90)"/>
<path d="M0 0 C4.75 0.75 4.75 0.75 7 3 C7.1953125 5.1640625 7.1953125 5.1640625 7.125 7.625 C7.10695312 8.44226562 7.08890625 9.25953125 7.0703125 10.1015625 C7.03550781 11.04128906 7.03550781 11.04128906 7 12 C7.99 12.33 8.98 12.66 10 13 C9.01 13.66 8.02 14.32 7 15 C5.38024307 13.38024307 5.84148265 11.41902321 5.75 9.1875 C5.41399953 5.20674867 5.33918529 4.3474581 2.4375 1.375 C1.633125 0.92125 0.82875 0.4675 0 0 Z " fill="#E4D7D6" transform="translate(208,47)"/>
<path d="M0 0 C0.33 0.66 0.66 1.32 1 2 C0.70351562 2.55171875 0.40703125 3.1034375 0.1015625 3.671875 C-1.40812482 6.86256169 -1.42995135 9.7391243 -1.625 13.25 C-1.69976562 14.51328125 -1.77453125 15.7765625 -1.8515625 17.078125 C-1.90054688 18.04234375 -1.94953125 19.0065625 -2 20 C-2.33 20 -2.66 20 -3 20 C-3.08112454 17.41603321 -3.14054748 14.83462432 -3.1875 12.25 C-3.21263672 11.52039062 -3.23777344 10.79078125 -3.26367188 10.0390625 C-3.30981636 6.65513396 -3.25324128 4.42141443 -1.48828125 1.484375 C-0.75158203 0.74960937 -0.75158203 0.74960937 0 0 Z " fill="#EFB083" transform="translate(154,26)"/>
<path d="M0 0 C0.99 0.495 0.99 0.495 2 1 C2 1.66 2 2.32 2 3 C2.99 3 3.98 3 5 3 C5 5.31 5 7.62 5 10 C4.01 10.495 4.01 10.495 3 11 C2.4375 9.0625 2.4375 9.0625 2 7 C2.33 6.67 2.66 6.34 3 6 C2.505 5.566875 2.01 5.13375 1.5 4.6875 C0 3 0 3 0 0 Z " fill="#E67861" transform="translate(221,278)"/>
<path d="M0 0 C1.29608947 0.93137592 2.58671632 1.8703566 3.875 2.8125 C4.59429687 3.33457031 5.31359375 3.85664063 6.0546875 4.39453125 C8 6 8 6 10 9 C7.03 8.505 7.03 8.505 4 8 C3.67 7.01 3.34 6.02 3 5 C2.484375 4.484375 1.96875 3.96875 1.4375 3.4375 C0.963125 2.963125 0.48875 2.48875 0 2 C0 1.34 0 0.68 0 0 Z " fill="#DADFE6" transform="translate(164,218)"/>
<path d="M0 0 C-0.33 0.99 -0.66 1.98 -1 3 C-6.61 3 -12.22 3 -18 3 C-18 2.67 -18 2.34 -18 2 C-15.37518273 1.66517137 -12.75016613 1.3320723 -10.125 1 C-9.37863281 0.90460938 -8.63226563 0.80921875 -7.86328125 0.7109375 C-2.2265625 0 -2.2265625 0 0 0 Z " fill="#EDAD86" transform="translate(290,103)"/>
<path d="M0 0 C0.99 1.485 0.99 1.485 2 3 C2.99 3.33 3.98 3.66 5 4 C4.67 5.32 4.34 6.64 4 8 C3.01 8 2.02 8 1 8 C0 7 0 7 -0.0625 3.4375 C-0.041875 2.303125 -0.02125 1.16875 0 0 Z " fill="#DD916D" transform="translate(97,66)"/>
<path d="M0 0 C0.99 0.33 1.98 0.66 3 1 C2.67 2.32 2.34 3.64 2 5 C3.32 4.34 4.64 3.68 6 3 C6.99 4.485 6.99 4.485 8 6 C4.37673261 7.2077558 3.35853631 6.54311128 0 5 C0 3.35 0 1.7 0 0 Z " fill="#E7705D" transform="translate(200,284)"/>
<path d="M0 0 C-0.33 0.66 -0.66 1.32 -1 2 C-1.99 1.67 -2.98 1.34 -4 1 C-4.78375 1.78375 -5.5675 2.5675 -6.375 3.375 C-7.91666667 4.91666667 -9.45833333 6.45833333 -11 8 C-11 6.68 -11 5.36 -11 4 C-10.34 4 -9.68 4 -9 4 C-8.896875 3.360625 -8.79375 2.72125 -8.6875 2.0625 C-8.460625 1.381875 -8.23375 0.70125 -8 0 C-4.71023192 -1.09658936 -3.28696233 -0.79953138 0 0 Z " fill="#E1AB72" transform="translate(260,114)"/>
<path d="M0 0 C0.99 0 1.98 0 3 0 C6.125 6.625 6.125 6.625 5 10 C4.731875 9.195625 4.46375 8.39125 4.1875 7.5625 C3.795625 6.716875 3.40375 5.87125 3 5 C2.01 4.67 1.02 4.34 0 4 C0 2.68 0 1.36 0 0 Z " fill="#D5D3D9" transform="translate(164,192)"/>
<path d="M0 0 C2.3129482 2.3129482 2.49580975 3.47904875 3.125 6.625 C3.29257813 7.44226563 3.46015625 8.25953125 3.6328125 9.1015625 C3.81457031 10.04128906 3.81457031 10.04128906 4 11 C2 9 2 9 1 6 C0.01 6.66 -0.98 7.32 -2 8 C-1.125 1.125 -1.125 1.125 0 0 Z " fill="#DCC9C6" transform="translate(171,166)"/>
<path d="M0 0 C0.66 0.33 1.32 0.66 2 1 C2 3.64 2 6.28 2 9 C1.01 9 0.02 9 -1 9 C-0.67 6.03 -0.34 3.06 0 0 Z " fill="#165387" transform="translate(174,229)"/>
<path d="M0 0 C1.31534494 3.65857532 0.65468309 6.08026481 -0.4375 9.75 C-0.86869141 11.22726563 -0.86869141 11.22726563 -1.30859375 12.734375 C-1.53675781 13.48203125 -1.76492187 14.2296875 -2 15 C-2.33 15 -2.66 15 -3 15 C-2.8858134 13.06183265 -2.75826577 11.12444901 -2.625 9.1875 C-2.55539063 8.10855469 -2.48578125 7.02960938 -2.4140625 5.91796875 C-2 3 -2 3 0 0 Z " fill="#DCDADF" transform="translate(155,145)"/>
<path d="M0 0 C0.66 0 1.32 0 2 0 C1.125 4.875 1.125 4.875 0 6 C-1.99958364 6.04080783 -4.00045254 6.04254356 -6 6 C-4 4 -2 2 0 0 Z " fill="#AAAF75" transform="translate(264,141)"/>
<path d="M0 0 C-0.33 3.3 -0.66 6.6 -1 10 C-1.33 8.68 -1.66 7.36 -2 6 C-2.66 6 -3.32 6 -4 6 C-4 4.35 -4 2.7 -4 1 C-2 0 -2 0 0 0 Z " fill="#9771AD" transform="translate(88,86)"/>
<path d="M0 0 C0.33 0 0.66 0 1 0 C1 3.63 1 7.26 1 11 C-1.09219926 8.21040099 -2.57568513 6.06775511 -4 3 C-3.01 3.33 -2.02 3.66 -1 4 C-0.67 2.68 -0.34 1.36 0 0 Z " fill="#DCD7DA" transform="translate(220,140)"/>
<path d="M0 0 C0 3 0 3 -1 5 C-1.66 5 -2.32 5 -3 5 C-2.67 6.32 -2.34 7.64 -2 9 C-2.99 8.67 -3.98 8.34 -5 8 C-4.45773019 4.20411134 -2.79872437 2.52788007 0 0 Z " fill="#FDD5D6" transform="translate(145,293)"/>
<path d="M0 0 C0.78375 0.33 1.5675 0.66 2.375 1 C4.84332497 2.11866511 4.84332497 2.11866511 7 2 C7 2.99 7 3.98 7 5 C6.01 5.33 5.02 5.66 4 6 C2.62437146 4.71034824 1.29233607 3.37310707 0 2 C0 1.34 0 0.68 0 0 Z " fill="#8E4135" transform="translate(159,211)"/>
<path d="M0 0 C1.45606519 4.52092968 0.27032841 7.51648796 -1 12 C-1.33 12 -1.66 12 -2 12 C-2.05422947 10.5629191 -2.09289723 9.12524538 -2.125 7.6875 C-2.14820313 6.88699219 -2.17140625 6.08648437 -2.1953125 5.26171875 C-2 3 -2 3 0 0 Z " fill="#873C33" transform="translate(165,184)"/>
<path d="M0 0 C2.15377564 2.62198774 3.40072174 4.64404172 4 8 C2.35 8 0.7 8 -1 8 C-0.67 5.36 -0.34 2.72 0 0 Z " fill="#924130" transform="translate(219,149)"/>
<path d="M0 0 C2.3431213 0.25561323 4.67843403 0.59270772 7 1 C7.33 1.66 7.66 2.32 8 3 C7.34 3.66 6.68 4.32 6 5 C4.02 4.01 2.04 3.02 0 2 C0 1.34 0 0.68 0 0 Z " fill="#B8B28F" transform="translate(201,150)"/>
<path d="M0 0 C4.7517398 0.43197635 6.92000054 1.32769295 10 5 C6.05140217 4.4359146 3.29120954 3.2568294 0 1 C0 0.67 0 0.34 0 0 Z " fill="#FEF5E4" transform="translate(214,115)"/>
<path d="M0 0 C0.33 0 0.66 0 1 0 C1 2.64 1 5.28 1 8 C1.99 8.33 2.98 8.66 4 9 C3.34 9.66 2.68 10.32 2 11 C1.01 11 0.02 11 -1 11 C-0.67 7.37 -0.34 3.74 0 0 Z " fill="#D0A5B4" transform="translate(87,88)"/>
<path d="M0 0 C0.53625 0.268125 1.0725 0.53625 1.625 0.8125 C0.4184375 1.2146875 0.4184375 1.2146875 -0.8125 1.625 C-1.658125 2.016875 -2.50375 2.40875 -3.375 2.8125 C-3.705 3.8025 -4.035 4.7925 -4.375 5.8125 C-5.695 5.4825 -7.015 5.1525 -8.375 4.8125 C-2.95961538 -0.23365385 -2.95961538 -0.23365385 0 0 Z " fill="#CDB6C3" transform="translate(80.375,88.1875)"/>
<path d="M0 0 C0.33 0 0.66 0 1 0 C1.05449838 1.72880982 1.09301688 3.45812712 1.125 5.1875 C1.14820312 6.15042969 1.17140625 7.11335938 1.1953125 8.10546875 C0.9913544 11.12812778 0.26874632 13.26769985 -1 16 C-2.22602512 12.32192463 -1.70295577 10.11756073 -1.0625 6.3125 C-0.86785156 5.13300781 -0.67320313 3.95351562 -0.47265625 2.73828125 C-0.31667969 1.83464844 -0.16070312 0.93101563 0 0 Z " fill="#F0EDD4" transform="translate(125,72)"/>
<path d="M0 0 C0.66 0 1.32 0 2 0 C2 1.65 2 3.3 2 5 C-0.64 5.33 -3.28 5.66 -6 6 C-4.68 4.68 -3.36 3.36 -2 2 C-1.01 2.66 -0.02 3.32 1 4 C0.67 2.68 0.34 1.36 0 0 Z " fill="#E5725D" transform="translate(238,285)"/>
<path d="M0 0 C2.31 0 4.62 0 7 0 C7 0.66 7 1.32 7 2 C7.99 2.33 8.98 2.66 10 3 C3.47692308 3.36923077 3.47692308 3.36923077 1.0625 1.5 C0.5365625 0.7575 0.5365625 0.7575 0 0 Z " fill="#7A4245" transform="translate(186,229)"/>
<path d="M0 0 C0.99 0.33 1.98 0.66 3 1 C3 2.33333333 3 3.66666667 3 5 C1.68 5 0.36 5 -1 5 C-0.67 3.35 -0.34 1.7 0 0 Z " fill="#43442A" transform="translate(200,154)"/>
<path d="M0 0 C0.66 0.33 1.32 0.66 2 1 C0.35 2.65 -1.3 4.3 -3 6 C-3.99 5.67 -4.98 5.34 -6 5 C-5.195625 4.360625 -4.39125 3.72125 -3.5625 3.0625 C-1.7249496 1.59396498 -1.7249496 1.59396498 0 0 Z " fill="#8A443A" transform="translate(166,135)"/>
<path d="M0 0 C2.97 0.495 2.97 0.495 6 1 C6 1.99 6 2.98 6 4 C7.65 4 9.3 4 11 4 C11 4.33 11 4.66 11 5 C8.3125 5.3125 8.3125 5.3125 5 5 C2.125 2.5 2.125 2.5 0 0 Z " fill="#541E21" transform="translate(97,83)"/>
<path d="M0 0 C1.98 0.99 3.96 1.98 6 3 C6.33 2.01 6.66 1.02 7 0 C6.67 1.65 6.34 3.3 6 5 C4.68 5 3.36 5 2 5 C1.34 3.35 0.68 1.7 0 0 Z " fill="#EDB294" transform="translate(158,59)"/>
<path d="M0 0 C0.66 0.33 1.32 0.66 2 1 C1.6875 2.875 1.6875 2.875 1 5 C0.01 5.66 -0.98 6.32 -2 7 C-2.6875 5.1875 -2.6875 5.1875 -3 3 C-1.5625 1.25 -1.5625 1.25 0 0 Z " fill="#ECA07E" transform="translate(196,31)"/>
<path d="M0 0 C0.99 0.33 1.98 0.66 3 1 C2.34 1 1.68 1 1 1 C1 4.63 1 8.26 1 12 C0.67 12 0.34 12 0 12 C-2.21538462 4.61538462 -2.21538462 4.61538462 -1.125 1.5 C-0.75375 1.005 -0.3825 0.51 0 0 Z " fill="#6F2F17" transform="translate(82,66)"/>
<path d="M0 0 C0.66 0.33 1.32 0.66 2 1 C0.68 2.65 -0.64 4.3 -2 6 C-3.32 5.67 -4.64 5.34 -6 5 C-4.02 3.35 -2.04 1.7 0 0 Z " fill="#FECBBB" transform="translate(262,49)"/>
<path d="M0 0 C1.32 0 2.64 0 4 0 C4 0.66 4 1.32 4 2 C4.66 2 5.32 2 6 2 C5.67 2.99 5.34 3.98 5 5 C2.525 4.01 2.525 4.01 0 3 C0 2.01 0 1.02 0 0 Z " fill="#FA955C" transform="translate(199,0)"/>
<path d="M0 0 C2.64 0 5.28 0 8 0 C7.67 0.99 7.34 1.98 7 3 C4.69 2.67 2.38 2.34 0 2 C0 1.34 0 0.68 0 0 Z " fill="#F29A9B" transform="translate(144,303)"/>
<path d="M0 0 C1.52299523 2.93720508 2.80100302 5.9168649 4 9 C2.68 8.34 1.36 7.68 0 7 C0 4.69 0 2.38 0 0 Z " fill="#DADBE2" transform="translate(147,193)"/>
<path d="M0 0 C0.33 0 0.66 0 1 0 C0.25 7.625 0.25 7.625 -2 11 C-2.28571429 3.57142857 -2.28571429 3.57142857 0 0 Z " fill="#DDE2E8" transform="translate(151,161)"/>
<path d="M0 0 C1.875 0.625 1.875 0.625 4 2 C5.25 5.125 5.25 5.125 6 8 C5.01 7.34 4.02 6.68 3 6 C3 5.34 3 4.68 3 4 C2.01 3.67 1.02 3.34 0 3 C0 2.01 0 1.02 0 0 Z " fill="#DDC292" transform="translate(272,148)"/>
<path d="M0 0 C0.33 0 0.66 0 1 0 C1.144375 1.093125 1.28875 2.18625 1.4375 3.3125 C1.88288104 6.93122987 1.88288104 6.93122987 3 10 C1.68 10.33 0.36 10.66 -1 11 C-0.67 7.37 -0.34 3.74 0 0 Z " fill="#B3585C" transform="translate(291,72)"/>
<path d="M0 0 C1.83832664 3.10217621 2.47446226 5.39408679 2 9 C1.01 9.66 0.02 10.32 -1 11 C-1.0270043 9.54176788 -1.04639787 8.08339325 -1.0625 6.625 C-1.07410156 5.81289062 -1.08570313 5.00078125 -1.09765625 4.1640625 C-1 2 -1 2 0 0 Z " fill="#A55459" transform="translate(266,74)"/>
<path d="M0 0 C0.66 0.33 1.32 0.66 2 1 C1.38125 1.5775 0.7625 2.155 0.125 2.75 C-1.81347053 4.80249821 -2.90014249 6.43366582 -4 9 C-5 7 -5 7 -4.25 4.5 C-3 2 -3 2 0 0 Z " fill="#E8B892" transform="translate(163,11)"/>
</svg>
